<svg version="1.1" id="Layer_1" xmlns="http://www.w3.org/2000/svg" x="0" y="0" viewBox="0 0 699.1 242.1" xml:space="preserve"><style>.st0{fill:none}.st1{fill:#f2f2f2}.st2{fill:#ccc}.st3{fill:#e6e6e6}.st4{fill:#2d1214}.st7{fill:#e4bcba}.st8{fill:#ab8d8b}.st9{fill:#efd7d6}</style><switch><g><path class="st0" d="M71.4 161.8c-.7 0-1.3 0-2-.1.7 0 1.4.1 2 .1z"/><path class="st1" d="M134.8 7.6h-.4c-.1 4.2-24.2 7.6-53.9 7.6s-53.9-3.4-53.9-7.6h-.4s-84 154.2 48.5 154.2h11.7c132.4 0 48.4-154.2 48.4-154.2z"/><ellipse class="st2" cx="80.6" cy="7.6" rx="53.9" ry="7.6"/><ellipse class="st1" cx="80.6" cy="7.6" rx="45.6" ry="6.4"/><path class="st3" d="M111.7 214.6c-7.9-.6-12.4-3.9-12.4-3.9l-.3-.1c.1.1.2.1.2.1s-12.9-6.7-12.9-26.4c0-11.3 2.9-18.5 5.5-22.6-1.8.1-3.5.1-5.4.1H74.7c-3.6 0-7-.1-10.3-.3 2.6 4.1 5.6 11.3 5.6 22.8 0 19.7-12.9 26.4-12.9 26.4s.1 0 .2-.1l-.3.1s-4.5 3.4-12.4 3.9-38.8 2.8-38.8 11.2 28.9 16.3 68.7 16.3c1.3 0 2.4 0 3.6-.1 1.1.1 2.3.1 3.6.1 39.7 0 68.7-7.9 68.7-16.3s-30.9-10.6-38.7-11.2z"/><path class="st2" d="M91.9 203.6c-2.3.6-5.2 1-8.5 1H73c-3.4 0-6.2-.4-8.5-1-3.5 5-7.3 7-7.3 7s5.3 3.9 15.9 3.9h10.3c10.5 0 15.9-3.9 15.9-3.9s-3.9-1.9-7.4-7zM146.6 221.2c-9.1 6.1-33.7 11-64.8 11-1.3 0-2.4 0-3.6-.1-1.1.1-2.3.1-3.6.1-31.2 0-55.7-4.8-64.8-11-2.4 1.3-3.9 2.8-3.9 4.7 0 8.4 28.9 16.3 68.7 16.3 1.3 0 2.4 0 3.6-.1 1.1.1 2.3.1 3.6.1 39.7 0 68.7-7.9 68.7-16.3-.1-1.9-1.5-3.4-3.9-4.7zM74.7 171.8h13c1.1-4.5 2.6-7.8 4.1-10.1-1.8.1-3.5.1-5.4.1H74.7c-3.6 0-7-.1-10.3-.3 1.5 2.3 3.1 5.7 4.2 10.3h6.1z"/><path class="st3" d="M9.8 221.2c9.1 6.1 33.7 11 64.8 11 1.3 0 2.4 0 3.6-.1 1.1.1 2.3.1 3.6.1 31.2 0 55.7-4.8 64.8-11h.1c-8.5-4.7-28.8-6.1-34.9-6.6-7.9-.6-12.4-3.9-12.4-3.9h-.1s-5.3 3.9-15.9 3.9H73c-10.5 0-15.9-3.9-15.9-3.9H57s-4.5 3.4-12.4 3.9c-6.1.4-26.3 1.9-34.8 6.6zM147.5 221.7c.1.1.2.1.3.2-.1-.1-.2-.1-.3-.2zM148.3 222.3c.1.1.2.2.3.2-.1-.1-.2-.2-.3-.2zM149.2 223.1c-.1-.1-.2-.2-.2-.3.1.1.1.2.2.3zM150.3 224.9c0 .1.1.2.1.2-.1-.1-.1-.1-.1-.2zM150 224.2c0 .1.1.2.1.3 0-.2-.1-.3-.1-.3zM149.5 223.5c.1.1.1.2.2.3 0-.1-.1-.2-.2-.3zM6.6 223.7c.1-.1.1-.2.2-.3 0 .2-.1.3-.2.3zM6.3 224.4c0-.1.1-.2.1-.3 0 .1-.1.2-.1.3zM6 225.1c0-.1 0-.2.1-.2 0 .1-.1.1-.1.2zM7.8 222.5c.1-.1.2-.2.3-.2-.1 0-.2.1-.3.2zM8.6 221.9c.1-.1.2-.1.3-.2-.1.1-.2.1-.3.2zM7.4 222.9c-.1.1-.2.2-.2.3 0-.2.1-.3.2-.3z"/><path class="st4" d="M146 142.1l.4-.4c.5-.5.9-1 1.3-1.5.1-.1.2-.2.3-.4.3-.4.7-.8 1-1.2.1-.2.3-.3.4-.5l.9-1.2c.1-.2.2-.3.3-.5.4-.5.7-1.1 1.1-1.6.1-.1.1-.2.2-.3.3-.5.6-1 .9-1.4.1-.2.2-.4.3-.5.2-.4.5-.8.7-1.3.1-.2.2-.4.3-.5l.9-1.8c.3-.6.5-1.2.8-1.8.1-.2.2-.4.2-.6.2-.4.4-.9.5-1.3.1-.2.2-.4.2-.6.2-.5.4-1.1.6-1.6 0-.1.1-.2.1-.3.2-.6.4-1.3.6-1.9.1-.2.1-.4.2-.5.1-.5.3-1 .4-1.4.1-.2.1-.4.2-.6.1-.5.3-1 .4-1.6 0-.1.1-.3.1-.4.1-.7.3-1.3.4-2 0-.2.1-.3.1-.5.1-.5.2-1 .3-1.6 0-.2.1-.4.1-.6.1-.5.2-1 .2-1.6 0-.2 0-.3.1-.5.1-.7.2-1.4.2-2.1v-.4c.1-.6.1-1.1.2-1.7v-.6c0-.5.1-1 .1-1.6v-.6c0-.7.1-1.4.1-2.1v-.1-2-.6-1.6-.6c0-.7 0-1.4-.1-2.1 0-.7-.1-1.5-.1-2.2v-.5c0-.6-.1-1.1-.1-1.7v-.6c-.1-.6-.1-1.3-.2-1.9v-.2c-.1-.7-.2-1.5-.2-2.2 0-.1 0-.3-.1-.4-.1-.6-.1-1.2-.2-1.8 0-.2-.1-.4-.1-.6l-.3-1.8c0-.1 0-.2-.1-.4-.1-.7-.2-1.5-.4-2.2v-.3c-.1-.6-.2-1.3-.3-1.9 0-.2-.1-.4-.1-.5l-.3-1.8c0-.1-.1-.3-.1-.4-.1-.7-.3-1.5-.5-2.2-.2-.7-.3-1.4-.5-2.1 0-.2-.1-.3-.1-.5-.1-.6-.3-1.2-.4-1.8 0-.1-.1-.3-.1-.4-.3-1.4-.7-2.9-1.1-4.3 0-.1-.1-.2-.1-.4-.2-.6-.3-1.2-.5-1.8 0-.1-.1-.3-.1-.4l-1.2-4.2c0-.1-.1-.2-.1-.3-.2-.6-.4-1.2-.5-1.8 0-.1-.1-.2-.1-.4-.2-.7-.4-1.3-.6-2h-.1c-2.3-5.7-10.3-29.5-25.2-16.1-10 9-5.5 39.5-7.6 50.9-5 26.3-26 58.7-73.2 47.1-9.6-2.4-25.6-15.7-35.1-18.5-10.6-3.1-6.7 11.6-5.3 15.4 8.5 18.2 27 31.5 62.5 32.9h1c.6 0 1.3 0 2 .1H91.2c.9 0 1.7-.1 2.5-.1.4 0 .7 0 1.1-.1 1-.1 1.9-.1 2.9-.2h.5c1.1-.1 2.2-.2 3.2-.3.3 0 .6-.1.9-.1.8-.1 1.6-.2 2.3-.3.3 0 .7-.1 1-.1.8-.1 1.6-.2 2.4-.4.2 0 .4-.1.7-.1 1-.2 1.9-.3 2.9-.5.2 0 .5-.1.7-.1.7-.1 1.4-.3 2.1-.5.3-.1.6-.1.9-.2.7-.2 1.4-.3 2-.5.2-.1.5-.1.7-.2.9-.2 1.7-.5 2.6-.7.2-.1.3-.1.5-.2.7-.2 1.4-.4 2-.7.3-.1.5-.2.8-.3.6-.2 1.2-.4 1.7-.6.2-.1.5-.2.7-.3.8-.3 1.5-.6 2.3-1 .1 0 .1-.1.2-.1.7-.3 1.3-.6 2-.9.2-.1.4-.2.7-.3.5-.3 1-.5 1.5-.8l.6-.3c.6-.3 1.2-.7 1.8-1 .1 0 .1-.1.2-.1.6-.4 1.3-.8 1.9-1.2.2-.1.4-.2.5-.4.4-.3.9-.6 1.3-.9.2-.1.4-.3.6-.4.5-.3.9-.7 1.4-1.1l.3-.3c.5-.4 1.1-.9 1.6-1.4l.4-.4c.4-.3.8-.7 1.1-1.1l.5-.5c.1.3.5-.1.8-.5z"/><path class="st2" d="M134.8 7.6h-.4c0 .9-1.2 1.8-3.5 2.7 16.7 36.9 54.5 141.5-54.6 141.5H64.7c-24.7 0-41.8-5.4-53.4-14.1 10.8 14.4 30.3 24.1 63.4 24.1h11.7c132.4 0 48.4-154.2 48.4-154.2z"/><path class="st3" d="M12.9 139.8l-.3-.3c.2.1.3.2.3.3zM14.2 141.2l-.3-.3.3.3zM55.2 160.5c.3 0 .7.1 1 .1-.4 0-.7 0-1-.1zM60.9 161.2c.4 0 .8.1 1.2.1-.4-.1-.8-.1-1.2-.1zM58 160.9c.4 0 .8.1 1.1.1-.4 0-.7-.1-1.1-.1zM15.2 142.3l.3.3-.3-.3zM63.9 161.4c.4 0 .8.1 1.2.1-.4 0-.8 0-1.2-.1zM11.7 138.3c-.1-.1-.1-.2-.2-.2.1 0 .2.1.2.2zM134 8.6zM134.2 8.4s0-.1.1-.1c-.1 0-.1 0-.1.1zM134.4 8zM64.7 151.8h11.7c109.1 0 71.3-104.7 54.6-141.5.1 0 .1 0 .2-.1-1.4.5-3.2 1-5.3 1.5 17.4 43.4 39.8 130.1-59.5 130.1H54.7c-20.6 0-36-3.7-47.2-10 1.1 2.1 2.4 4.1 3.8 6 11.6 8.7 28.8 14 53.4 14zM133.6 9zM132.4 9.7c.1 0 .1-.1.2-.1-.1 0-.2 0-.2.1zM133 9.4l.1-.1s-.1 0-.1.1zM131.7 10c.1 0 .2-.1.2-.1s-.1 0-.2.1zM43.9 158.2c.3.1.6.2.9.2-.3 0-.6-.1-.9-.2zM21.3 147.8l.3.3c0-.2-.2-.3-.3-.3zM24.6 150c.2.1.4.2.5.3-.1 0-.3-.1-.5-.3zM22.9 148.9c.2.1.3.2.5.3-.1-.1-.3-.2-.5-.3zM26.4 151.1l.6.3-.6-.3zM16.6 143.8l.2.2c0-.1-.1-.2-.2-.2zM52.5 160.1c.2 0 .4.1.6.1-.2 0-.4-.1-.6-.1zM68.2 161.7c-.4 0-.8 0-1.2-.1.4 0 .8 0 1.2.1zM28.3 152.2c.2.1.4.2.5.3-.2-.1-.4-.2-.5-.3zM71.4 161.8h-1c.3-.1.7 0 1 0zM46.4 158.9c.3.1.5.1.8.2-.2-.1-.5-.2-.8-.2zM30.4 153.3c.1.1.2.1.4.2-.2-.1-.3-.2-.4-.2zM41.5 157.6l.9.3c-.3-.2-.6-.3-.9-.3zM49.3 159.5c.2 0 .3.1.5.1-.2 0-.3-.1-.5-.1zM39.2 156.8c.3.1.6.2.8.3-.3-.1-.6-.2-.8-.3zM34.8 155.3c.2.1.4.1.5.2-.1-.1-.3-.2-.5-.2zM37 156.1c.2.1.5.2.7.3-.3-.2-.5-.2-.7-.3z"/><path class="st4" d="M146 142.1c7.7-8.1 12.1-18.7 13.9-29.6 1.8-11.1 1.2-22.5-.5-33.5-.9-5.6-2-11.1-3.4-16.6-1.2-4.6-2.5-9.3-4.1-13.7-2-5.3-4.3-10.9-8.3-15-1.9-2-4.4-3.7-7.3-3.8-3.5-.2-6.9 1.9-9.3 4.3-2.3 2.2-3.6 5.2-4.4 8.2-1.1 3.8-1.6 7.7-1.9 11.6-.6 8-.2 16.1-.5 24.1-.2 6.3-1.6 12.3-3.7 18.2-2.3 6.5-5.6 12.6-9.8 18.1-4.4 5.7-9.9 10.5-16.2 14-7.2 3.9-15.3 5.8-23.5 6-4.9.1-9.8-.3-14.7-1.2-4.4-.8-8.5-1.8-12.4-3.9-8.2-4.2-15.5-9.9-23.8-13.9-2.6-1.3-6.5-3.3-9.4-2-2.4 1.1-2.6 4.2-2.6 6.5.1 2.7.7 5.4 1.5 7.9.9 2.8 2.6 5.5 4.2 8 4 5.9 9.2 10.9 15.2 14.6 7.3 4.6 15.7 7.4 24.1 9.1 9.1 1.8 18.3 2.3 27.6 2.3 7.4 0 14.9.1 22.3-.5 11.7-1 23.4-3.5 33.8-9.1 5-2.7 9.4-6.1 13.2-10.1z"/><path class="st2" d="M134.8 7.6h-.4c0 .9-1.2 1.8-3.5 2.7 16.7 36.9 54.5 141.5-54.6 141.5H64.7c-24.7 0-41.8-5.4-53.4-14.1 10.8 14.4 30.3 24.1 63.4 24.1h11.7c132.4 0 48.4-154.2 48.4-154.2z"/><path class="st0" d="M38.7 156.7s-.1 0 0 0c-.1 0 0 0 0 0zM45.2 158.6h-.1.1zM74.7 161.8h2.1c-6.9 0-13.7-.3-20.5-1.1 5.6.7 11.7 1.1 18.4 1.1zM86.4 161.8c4.5 0 8.7-.2 12.7-.5-4.5.4-9 .5-13.5.5h.8zM47.9 159.2c-.2 0-.4-.1-.7-.1.2 0 .5.1.7.1zM55.8 160.6c-.8-.1-1.6-.2-2.3-.3.7.1 1.5.2 2.3.3zM51.6 159.9l-1.8-.3 1.8.3z"/><path d="M146 142.1c7.7-8.1 12.1-18.7 13.9-29.6 1.8-11.1 1.2-22.5-.5-33.5-.9-5.6-2-11.1-3.4-16.6-1.2-4.6-2.5-9.3-4.1-13.7-2-5.3-4.3-10.9-8.3-15-1.2-1.3-2.7-2.4-4.3-3.1 16.4 45.3 30.1 121.3-62.9 121.3H64.7c-24.7 0-41.8-5.4-53.4-14.1 6 8.1 14.9 14.7 27.3 18.9h.1c2 .7 4.2 1.3 6.4 1.9h.1c.7.2 1.3.3 2 .5.2 0 .4.1.7.1.6.1 1.3.3 1.9.4l1.8.3c.6.1 1.2.2 1.9.3.8.1 1.5.2 2.3.3.2 0 .3 0 .5.1 6.8.9 13.6 1.1 20.5 1.1h8.8c4.5 0 9-.1 13.5-.5 11.7-1 23.4-3.5 33.8-9.1 4.9-2.6 9.3-6 13.1-10z" fill="#817172"/><path class="st0" d="M120.6 143.4l-.6.3c.2-.2.4-.3.6-.3zM129.1 138.2c-.3.2-.6.4-.8.6.3-.2.5-.4.8-.6zM131.4 136.5c-.3.2-.5.4-.8.6.3-.2.5-.4.8-.6zM117.7 144.7c-.3.1-.7.3-1 .4.3-.2.7-.3 1-.4zM126.7 139.9c-.3.2-.5.4-.8.5.2-.1.5-.3.8-.5zM87.2 151.4c-.5 0-1.1.1-1.6.1.5 0 1.1 0 1.6-.1zM114.7 145.9c-.4.1-.8.3-1.2.4.4-.1.8-.3 1.2-.4zM99.6 149.9c-.4.1-.7.1-1.1.2.3-.1.7-.1 1.1-.2zM95.6 150.5c-.5.1-1 .1-1.5.2.6 0 1.1-.1 1.5-.2zM91.5 151c-.5.1-1.1.1-1.6.2.6-.1 1.1-.1 1.6-.2zM133.5 134.7l-.6.6c.1-.2.4-.4.6-.6zM103.8 149.1c-.2 0-.3.1-.5.1.2 0 .3-.1.5-.1zM111.5 147c-.4.1-.8.3-1.2.4.4-.2.8-.3 1.2-.4zM108 148c-.4.1-.8.2-1.1.3.3-.1.7-.2 1.1-.3zM123.8 141.6c-.2.1-.3.2-.5.3.2-.1.3-.2.5-.3zM149.9 103.1v0zM135.4 132.9l-.2.2c.1-.1.1-.2.2-.2zM148.7 108.6c-.1.3-.2.6-.2.9.1-.4.2-.6.2-.9zM150.9 94.4c0 .4 0 .7-.1 1.1.1-.4.1-.8.1-1.1zM148 111.1l-.3.9.3-.9zM151 91.6v0zM150.7 97.1c0 .3-.1.7-.1 1 0-.3.1-.7.1-1zM149.3 106c0 .2-.1.4-.2.7.1-.2.2-.5.2-.7zM139.5 128.2c-.2.2-.3.5-.5.7.1-.3.3-.5.5-.7zM137.7 130.4c-.1.2-.3.3-.4.5.1-.2.2-.3.4-.5zM147.2 113.6c-.1.3-.2.6-.3.8.1-.2.2-.5.3-.8zM141 126c-.2.3-.3.5-.5.8.2-.3.4-.6.5-.8zM146.2 116.2c-.1.2-.2.4-.3.7.2-.2.2-.5.3-.7zM143.7 121.6l-.3.6.3-.6zM142.4 123.8c-.2.3-.3.5-.5.8.2-.3.4-.6.5-.8zM150.4 99.9c0 .3-.1.6-.1.9 0-.3 0-.6.1-.9zM148.7 64.3l.3 1.5-.3-1.5zM149.8 70.8c.1.5.1 1 .2 1.5-.1-.6-.2-1-.2-1.5zM149.2 67.1c.1.5.2.9.2 1.4 0-.5-.1-.9-.2-1.4zM148.2 61.6l.3 1.5-.3-1.5zM145.8 51.3c.4 1.4.7 2.8 1.1 4.2-.4-1.4-.8-2.8-1.1-4.2zM147.6 58.8c.1.5.2 1 .3 1.6-.1-.5-.2-1.1-.3-1.6zM147 56.1c.1.5.3 1.1.4 1.6-.2-.5-.3-1-.4-1.6zM151.1 85.4v0zM145.2 49.3c.2.6.3 1.3.5 1.9-.1-.7-.3-1.3-.5-1.9zM150.2 73.9c.1.4.1.8.1 1.2 0-.4-.1-.8-.1-1.2zM151.1 88.9v0zM150.9 82.3c0 .4 0 .8.1 1.1 0-.3-.1-.7-.1-1.1zM150.5 76.7c0 .4.1.8.1 1.3 0-.5-.1-.9-.1-1.3zM150.7 79.5c0 .4.1.8.1 1.2 0-.4 0-.8-.1-1.2zM41.1 149.8c-.3-.1-.7-.1-1.1-.2.4.1.7.2 1.1.2zM37.4 149.1c-.3-.1-.6-.1-.9-.2.3.1.6.1.9.2zM45.3 150.5c-.5-.1-1.1-.1-1.6-.2.6.1 1.1.1 1.6.2zM82.5 151.7c-.5 0-1 0-1.5.1.6-.1 1-.1 1.5-.1zM49.3 151c-.6-.1-1.2-.1-1.7-.2.6.1 1.1.1 1.7.2zM64.7 151.8c-1.5 0-3.1 0-4.5-.1 1.5.1 3 .1 4.5.1zM53.8 151.4c-.7-.1-1.4-.1-2.1-.2.6.1 1.3.2 2.1.2zM59.3 151.7c-1.2 0-2.3-.1-3.5-.1 1.2 0 2.3.1 3.5.1zM30.2 147.2c-.1 0-.2-.1-.3-.1.1 0 .2 0 .3.1zM139.3 30.5c1.3 3.5 2.5 7.1 3.7 10.9-1.2-3.7-2.5-7.4-3.7-10.9zM21.3 143.7c-.1 0-.1-.1-.2-.1 0 0 .1.1.2.1zM143.8 44.2c.2.6.4 1.2.5 1.8-.1-.6-.3-1.2-.5-1.8zM24.2 145c-.1 0-.2-.1-.3-.1.1 0 .2 0 .3.1zM144.5 46.8c.2.6.3 1.2.5 1.8-.1-.6-.3-1.2-.5-1.8zM27.1 146.1c-.1 0-.2-.1-.2-.1 0 .1.1.1.2.1zM33.9 148.2c-.2-.1-.5-.1-.8-.2.3.1.5.2.8.2zM143 41.7c.2.6.4 1.3.6 1.9-.2-.6-.4-1.3-.6-1.9z"/><path d="M151.1 86.2v-.8c0-.6 0-1.3-.1-1.9 0-.4 0-.8-.1-1.1 0-.5-.1-1.1-.1-1.6 0-.4-.1-.8-.1-1.2 0-.5-.1-1-.1-1.5 0-.4-.1-.8-.1-1.3-.1-.5-.1-1-.2-1.5 0-.4-.1-.8-.1-1.2-.1-.5-.1-1.1-.2-1.6s-.1-1-.2-1.5c-.1-.8-.2-1.5-.3-2.3-.1-.5-.2-.9-.2-1.4-.1-.4-.2-.9-.2-1.3l-.3-1.5c-.1-.4-.2-.8-.2-1.3l-.3-1.5c-.1-.4-.2-.8-.2-1.2-.1-.5-.2-1-.3-1.6-.1-.4-.2-.7-.2-1.1-.1-.5-.2-1.1-.4-1.6 0-.2-.1-.4-.2-.6-.3-1.4-.7-2.8-1.1-4.2v-.1c-.2-.6-.3-1.3-.5-1.9-.1-.2-.1-.5-.2-.7-.2-.6-.3-1.2-.5-1.8-.1-.2-.1-.5-.2-.7-.2-.6-.4-1.2-.5-1.8-.1-.2-.1-.4-.2-.6-.2-.6-.4-1.3-.6-1.9 0-.1-.1-.2-.1-.3-1.2-3.8-2.4-7.5-3.7-10.9-1-.4-2-.7-3-.7-1.2-.1-2.5.2-3.6.6C147.2 76.2 153.1 142 66.6 142H54.7c-20.6 0-36-3.7-47.2-10 1.1 2.1 2.4 4.1 3.8 6 2.9 2.2 6.1 4.1 9.8 5.9.1 0 .1.1.2.1.9.4 1.7.8 2.6 1.2.1 0 .2.1.3.1.9.4 1.7.7 2.6 1 .1 0 .2.1.2.1.9.3 1.9.7 2.8 1 .1 0 .2.1.3.1.9.3 1.9.6 2.9.9.2.1.5.1.8.2.9.2 1.7.5 2.6.7.3.1.6.1.9.2l2.7.6c.3.1.7.1 1.1.2.9.2 1.7.3 2.6.5.5.1 1.1.1 1.6.2.8.1 1.5.2 2.3.3.6.1 1.1.1 1.7.2.8.1 1.5.2 2.3.2.7.1 1.4.1 2.1.2.7 0 1.4.1 2.1.1 1.1.1 2.3.1 3.5.1h.9c1.5 0 3 .1 4.5.1h11.7c1.6 0 3.1 0 4.7-.1.5 0 1 0 1.5-.1 1 0 2-.1 3-.1.6 0 1.1-.1 1.6-.1.9-.1 1.8-.1 2.7-.2.5 0 1.1-.1 1.6-.2.9-.1 1.8-.2 2.6-.3.5-.1 1-.1 1.5-.2.9-.1 1.9-.3 2.8-.4.4-.1.7-.1 1.1-.2 1.3-.2 2.5-.5 3.7-.7.2 0 .3-.1.5-.1 1-.2 2-.5 3-.7.4-.1.8-.2 1.1-.3.8-.2 1.5-.4 2.3-.7.4-.1.8-.3 1.2-.4.7-.2 1.4-.5 2.1-.7.4-.1.8-.3 1.2-.4.7-.3 1.3-.5 2-.8.3-.1.7-.3 1-.4.8-.3 1.5-.7 2.3-1l.6-.3c.9-.5 1.8-.9 2.7-1.4.2-.1.3-.2.5-.3.7-.4 1.4-.8 2-1.2.3-.2.5-.3.8-.5.5-.4 1.1-.7 1.6-1.1.3-.2.6-.4.8-.6.5-.4 1-.7 1.5-1.1.3-.2.5-.4.8-.6l1.5-1.2.6-.6c.6-.5 1.2-1.1 1.8-1.7l.2-.2c.6-.6 1.2-1.3 1.8-2 .1-.2.3-.3.4-.5.4-.5.9-1 1.3-1.5.2-.2.4-.5.5-.7.4-.5.7-.9 1-1.4.2-.3.4-.5.5-.8.3-.5.6-1 .9-1.4.2-.2.3-.5.5-.8.3-.5.6-1.1.9-1.6l.3-.6c.8-1.5 1.6-3.1 2.2-4.7.1-.2.2-.4.3-.7.2-.6.5-1.2.7-1.7.1-.3.2-.6.3-.8.2-.5.4-1.1.5-1.6l.3-.9c.2-.6.3-1.1.5-1.7.1-.3.2-.6.2-.9.2-.6.3-1.3.5-1.9.1-.2.1-.4.2-.7.2-.9.4-1.7.5-2.6v-.3c.1-.8.3-1.5.4-2.3 0-.3.1-.6.1-.9.1-.6.1-1.2.2-1.8 0-.3.1-.7.1-1 .1-.6.1-1.1.1-1.7 0-.4.1-.7.1-1.1 0-.6.1-1.1.1-1.7v-1-1.9-.8c.4-1.3.4-2.2.4-3.1z" fill="#574143"/><path class="st7" d="M67.7 23.3c-1.2 0-2.3.1-3.3.3-.9-.3-2-.4-3.2-.5-11-.3-23.8-8.7-23.8-8.7C37.8 22.2 50 34 61 34.2c1.2 0 2.3-.1 3.3-.3.9.3 2 .4 3.2.5 11 .3 23.8-10.8 24.5-18.5-.1 0-13.3 7.7-24.3 7.4z"/><path class="st8" d="M90.2 16.9c-3 7.3-14.1 15.8-23.7 15.6-1.2 0-2.3-.2-3.2-.5-1 .2-2 .3-3.3.3-8.5-.2-17.7-7.3-21.6-14 3.1 7.3 13.2 15.8 22.6 16 1.2 0 2.3-.1 3.3-.3.9.3 2 .4 3.2.5 11 .3 23.8-10.8 24.5-18.5-.1-.1-.7.3-1.8.9z"/><path class="st9" d="M61.2 25.2c1.2 0 2.3.2 3.2.5 1-.2 2-.3 3.3-.3 9.7.3 21.1-5.7 23.7-7.2.3-.8.5-1.6.5-2.3 0 0-13.2 7.7-24.2 7.4-1.2 0-2.3.1-3.3.3-.9-.3-2-.4-3.2-.5-11-.3-23.8-8.7-23.8-8.7 0 .7.2 1.5.4 2.2 2.2 1.5 13.6 8.3 23.4 8.6z"/><path class="st0" d="M91.8 16c.1 0 .1-.1.1-.1l-.1.1zM91.7 16.1c0-.1 0-.1 0 0 0-.1 0-.1 0 0zM91.8 16.9v.2c-.1 0 0-.1 0-.2zM90.5 16.7s.1 0 0 0c.1 0 0 0 0 0zM90.8 16.5s.1 0 .1-.1c0 .1 0 .1-.1.1zM91.2 16.3zM91.4 16.2c.1 0 .1-.1 0 0 .1-.1.1 0 0 0z"/><path class="st7" d="M88.7 19.6c1.2-.6 2.2-1.1 2.7-1.4.1-.4.2-.7.3-1.1v-.2c.1-.3.1-.7.2-1l-.1.1s-.1 0-.1.1h-.1s-.1 0-.1.1h-.1c-.1 0-.1.1-.2.1h-.1c-.1 0-.1.1-.2.1 0 0-.1 0-.1.1-.1 0-.2.1-.3.1 0 0-.1 0-.1.1-.1.1-.2.1-.3.2-.3.9-.8 1.8-1.4 2.7z"/><g><path class="st7" d="M250.3 169.4c-1.7 0-3.7-.1-6-.2s-4.7-.4-7.1-.8c-2.5-.4-4.9-.8-7.3-1.4s-4.6-1.3-6.6-2.3c-5.5-2.6-8.2-7.2-8.2-13.7V63.5c0-2.6.6-4.7 1.7-6.1 1.1-1.4 2.7-2.6 4.7-3.5 3.4-1.5 7.6-2.6 12.8-3.3 5.1-.7 10.3-1 15.8-1 12.8 0 22.6 2.7 29.5 8.1 6.9 5.4 10.4 13.7 10.4 24.9 0 5.6-1.3 10.5-3.9 14.5-2.6 4.1-6.1 7-10.5 8.9 5 1.8 9.2 4.9 12.5 9.6 3.3 4.6 5 10.4 5 17.4 0 12.4-3.7 21.5-11 27.5s-18 8.9-31.8 8.9zm-9.8-72.1h11c4.3 0 7.4-1 9.4-3 1.9-2 2.9-4.9 2.9-8.8 0-3.4-1.1-6.1-3.4-8.1-2.2-2-5.6-3-10.1-3-1.5 0-3.2.1-5.2.2s-3.5.3-4.6.6v22.1zm0 45.7c1.4.5 3.2.8 5.4 1 2.2.2 4.3.3 6.3.3 4 0 7.3-1 10-3.1 2.6-2.1 4-5.3 4-9.7 0-4.1-1.1-7.1-3.3-8.8-2.2-1.7-5.6-2.6-10.1-2.6h-12.3V143zM331 166.3c-1 .4-2.6.8-4.7 1.1-2.2.4-4.4.6-6.7.6-2.2 0-4.2-.2-5.9-.6-1.8-.4-3.2-1.1-4.4-2.2-1.2-1.1-2.1-2.7-2.8-4.6-.7-1.9-1-4.5-1-7.6V96.7c0-2.9.4-5.3 1.3-7.4.8-2.1 2.1-3.9 3.7-5.5s3.6-3.1 5.9-4.4c2.3-1.3 4.9-2.5 7.6-3.5 2.7-1 5.5-1.8 8.4-2.3 2.9-.6 5.8-.8 8.7-.8 4.8 0 8.6 1.2 11.4 3.5 2.8 2.3 4.2 6.1 4.2 11.3 0 1.8-.2 3.5-.6 5.2-.4 1.7-.9 3.2-1.5 4.6-2.1 0-4.3.1-6.4.4-2.2.3-4.4.6-6.5 1.1-2.1.5-4.1 1-5.9 1.6-1.9.6-3.4 1.2-4.7 2v63.8zM394.9 72.5c5.4 0 10.3.7 14.8 2.1 4.4 1.4 8.2 3.5 11.4 6.3 3.2 2.8 5.6 6.4 7.3 10.7 1.7 4.3 2.5 9.4 2.5 15.3v42c0 3.3-.7 5.9-2.2 8-1.5 2.1-3.2 3.8-5.2 5.3-6.5 4.9-15.7 7.3-27.5 7.3-5.3 0-10.1-.6-14.3-1.9-4.3-1.2-7.9-3.1-11-5.6-3.1-2.5-5.4-5.7-7-9.6-1.6-3.9-2.5-8.4-2.5-13.5 0-8.6 2-15.2 6.1-19.9 4.1-4.6 10.4-7.5 19.1-8.6l19.6-2.6v-1.3c0-3.6-1.3-6.2-3.8-7.8-2.5-1.6-6.2-2.3-11-2.3-3.8 0-7.5.5-11.1 1.5-3.6 1-6.9 2.2-9.8 3.8-1.3-1.1-2.4-2.8-3.3-5.2-.9-2.3-1.3-4.7-1.3-7.2 0-3.2.6-5.8 1.9-7.8 1.2-1.9 3.2-3.6 5.8-5 2.9-1.4 6.3-2.4 10.3-3 3.9-.7 7.7-1 11.2-1zm1.2 73.7c1.7 0 3.6-.2 5.6-.7 2-.4 3.6-1 4.6-1.8v-15l-10.8 1.1c-2.8.3-5.1 1-6.9 2.2-1.8 1.3-2.7 3.1-2.7 5.6 0 2.5.8 4.5 2.3 6.1 1.5 1.7 4.2 2.5 7.9 2.5zM492.7 108.7c0-3.9-.9-6.7-2.6-8.5-1.8-1.8-4.1-2.7-7.1-2.7-2 0-4 .3-5.9.9-2 .6-3.6 1.6-5 2.8v65.1c-1 .4-2.6.8-4.7 1.1-2.2.4-4.4.6-6.7.6-2.2 0-4.2-.2-5.9-.6-1.8-.4-3.2-1.1-4.4-2.2s-2.1-2.7-2.8-4.6c-.7-1.9-1-4.5-1-7.6V96.7c0-3.4.6-6.1 1.7-8.2 1.1-2.1 2.7-4.1 4.7-5.8 3.4-3 7.7-5.4 12.8-7.3 5.1-1.9 10.9-2.8 17.2-2.8 11.3 0 20 3.1 26.1 9.3 6.1 6.2 9.2 14.8 9.2 25.8v58.7c-1 .4-2.6.8-4.7 1.1-2.2.4-4.4.6-6.7.6-2.2 0-4.2-.2-5.9-.6-1.8-.4-3.2-1.1-4.4-2.2s-2.1-2.7-2.8-4.6c-.7-1.9-1-4.5-1-7.6v-44.4zM530.8 120.9c0-8.2 1-15.4 3-21.5s4.8-11.1 8.3-15.1c3.5-4 7.7-7 12.5-8.9 4.7-1.9 9.9-2.9 15.4-2.9 2 0 3.9.2 5.9.7 1.9.4 3.4 1 4.6 1.6V44.4c1-.4 2.6-.8 4.8-1.2 2.2-.4 4.4-.7 6.8-.7 2.2 0 4.2.2 5.9.6 1.7.4 3.2 1.1 4.4 2.2s2.1 2.7 2.7 4.6c.6 1.9.9 4.5.9 7.6v88.9c0 5.9-2.2 10.6-6.6 14.1-2.9 2.4-6.7 4.5-11.2 6.3-4.6 1.8-9.9 2.7-15.9 2.7-6.5 0-12.3-1.1-17.5-3.4-5.2-2.2-9.5-5.5-13-9.8-3.6-4.2-6.3-9.3-8.1-15.3-2-5.9-2.9-12.6-2.9-20.1zm42.6-23.5c-5.4 0-9.6 1.9-12.5 5.8-2.9 3.9-4.3 9.8-4.3 17.6 0 7.8 1.3 13.6 4 17.5s6.6 5.9 11.7 5.9c1.8 0 3.4-.3 4.9-1 1.4-.7 2.6-1.5 3.4-2.3V99.7c-2-1.5-4.4-2.3-7.2-2.3zM633.2 143.2c-1.1-3.1-2.3-6.6-3.5-10.5-1.3-3.9-2.5-8.3-3.9-13.3s-2.8-10.7-4.2-17.2c-1.5-6.4-3-13.8-4.6-22.2 1.4-1.7 3.3-3.3 5.6-4.6 2.3-1.3 4.9-2 7.7-2 3.5 0 6.4.9 8.7 2.7 2.3 1.8 4 5.2 5.1 10.2l11.8 51.6h.6c1.2-4.2 2.4-8.9 3.5-13.9s2.3-10.2 3.4-15.5c1.1-5.3 2.1-10.6 3.1-15.9.9-5.3 1.8-10.5 2.5-15.7 3.6-2.4 7.5-3.6 11.9-3.6 3.5 0 6.4.9 8.7 2.8 2.3 1.9 3.5 5.1 3.5 9.8 0 3.4-.4 7.3-1 11.7-.7 4.4-1.6 9.2-2.8 14.2-1.2 5-2.5 10.2-4 15.5-1.6 5.3-3.2 10.5-4.9 15.7-1.7 5.1-3.5 10-5.2 14.5-1.8 4.6-3.6 8.7-5.2 12.3-2.8 6.1-5.4 11.1-7.8 15-2.4 3.9-4.7 6.9-6.9 9.1-2.2 2.2-4.4 3.7-6.6 4.5-2.2.8-4.5 1.2-6.9 1.2-4.2 0-7.6-1.6-10.2-4.7-2.6-3.1-4.2-7.2-4.7-12.2 3.2-3.1 6.4-6.6 9.6-10.4 3.2-3.8 6.1-7.7 8.7-11.7-1.7-.6-3.5-2.1-5.5-4.4-2.1-2.3-4.2-6.6-6.5-13z"/><path class="st9" d="M260.4 77.4c-.6-.5-1.2-.9-1.9-1.3.8 1.5 1.2 3.3 1.2 5.4 0 3.9-1 6.8-2.9 8.8-2 2-5.1 3-9.4 3h-7v4h11c4.3 0 7.4-1 9.4-3 1.9-2 2.9-4.9 2.9-8.8.1-3.4-1.1-6.1-3.3-8.1z"/><path class="st9" d="M215 151.1V63.5c0-2.6.6-4.7 1.7-6.1 1.1-1.4 2.7-2.6 4.7-3.5 3.4-1.5 7.6-2.6 12.8-3.3 5.1-.7 10.3-1 15.8-1 12.8 0 22.6 2.7 29.5 8.1.1 0 .1.1.2.1-1.2-1.5-2.6-2.9-4.2-4.1-6.9-5.4-16.8-8.1-29.5-8.1-5.4 0-10.7.3-15.8 1-5.1.7-9.4 1.8-12.8 3.3-2 .9-3.6 2-4.7 3.5-1.2 1.4-1.7 3.5-1.7 6.1v87.6c0 5.6 2.1 9.8 6.2 12.6-1.4-2.4-2.2-5.3-2.2-8.6zM252.2 144.3c4 0 7.3-1 10-3.1 2.6-2.1 4-5.3 4-9.7 0-4.1-1.1-7.1-3.3-8.8-.5-.4-1.1-.8-1.8-1.1.7 1.6 1.1 3.6 1.1 5.9 0 4.4-1.3 7.6-4 9.7-2.7 2.1-6 3.1-10 3.1-2 0-4.1-.1-6.3-.3-.5 0-1-.1-1.4-.2v3.1c1.4.5 3.2.8 5.4 1 2.2.3 4.3.4 6.3.4zM277.4 105.1c-.6.3-1.3.7-2 .9 2.7 1 5.2 2.4 7.4 4.2-1.5-2-3.4-3.7-5.4-5.1zM306.4 160.5c-.7-1.9-1-4.5-1-7.6V96.7c0-2.9.4-5.3 1.3-7.4.8-2.1 2.1-3.9 3.7-5.5s3.6-3.1 5.9-4.4c2.3-1.3 4.9-2.5 7.6-3.5 2.7-1 5.5-1.8 8.4-2.3 2.9-.6 5.8-.8 8.7-.8 3.9 0 7.2.8 9.7 2.3-.6-1.1-1.4-2.1-2.3-2.9-2.8-2.3-6.6-3.5-11.4-3.5-2.9 0-5.8.3-8.7.8-2.9.6-5.7 1.3-8.4 2.3-2.7 1-5.2 2.2-7.6 3.5-2.4 1.3-4.3 2.8-5.9 4.4-1.6 1.6-2.8 3.5-3.7 5.5-.9 2.1-1.3 4.5-1.3 7.4v56.3c0 3.1.3 5.7 1 7.6.6 1.9 1.6 3.5 2.8 4.6.6.6 1.3 1.1 2.1 1.5-.3-.6-.6-1.3-.9-2.1zM396.1 146.2c1.7 0 3.6-.2 5.6-.7 2-.4 3.6-1 4.6-1.8v-15l-4 .4v10.6c-1 .8-2.5 1.3-4.6 1.8-2.1.4-3.9.7-5.6.7-2.2 0-4.1-.3-5.5-.9.4.9.9 1.8 1.7 2.5 1.4 1.6 4.1 2.4 7.8 2.4zM363.7 152.4c-1.6-3.9-2.5-8.4-2.5-13.5 0-8.6 2-15.2 6.1-19.9 4.1-4.6 10.4-7.5 19.1-8.6l19.6-2.6v-1.3c0-3.6-1.3-6.2-3.8-7.8-.3-.2-.6-.4-1-.5.5 1.2.8 2.7.8 4.3v1.3l-19.6 2.6c-8.6 1.1-15 4-19.1 8.6-4.1 4.6-6.1 11.2-6.1 19.9 0 5.1.8 9.6 2.5 13.5 1.7 3.9 4 7.1 7 9.6.1.1.3.2.4.3-1.3-1.8-2.4-3.7-3.4-5.9zM366.4 97.6c.3-.2.7-.3 1-.5-.1-.2-.2-.4-.3-.7-.9-2.3-1.3-4.7-1.3-7.2 0-3.2.6-5.8 1.9-7.8 1.2-1.9 3.2-3.6 5.8-5 2.9-1.4 6.3-2.4 10.3-3 3.9-.6 7.7-.9 11.2-.9 5.4 0 10.3.7 14.8 2.1 3.9 1.2 7.4 3 10.3 5.4-.9-1.1-1.9-2.1-2.9-3.1-3.1-2.8-7-4.9-11.4-6.3-4.5-1.4-9.4-2.1-14.8-2.1-3.5 0-7.2.3-11.2.9-4 .6-7.4 1.6-10.3 3-2.6 1.4-4.5 3-5.8 5-1.3 1.9-1.9 4.5-1.9 7.8 0 2.5.5 4.9 1.3 7.2.9 2.3 2 4 3.3 5.2z"/><g><path class="st9" d="M447.4 160.5c-.7-1.9-1-4.5-1-7.6V96.7c0-3.4.6-6.1 1.7-8.2 1.1-2.1 2.7-4.1 4.7-5.8 3.4-3 7.7-5.4 12.8-7.3 5.1-1.9 10.9-2.8 17.2-2.8 10 0 17.9 2.4 23.9 7.2-.6-.7-1.1-1.3-1.8-2-6.1-6.2-14.8-9.3-26.1-9.3-6.3 0-12 .9-17.2 2.8-5.2 1.9-9.4 4.3-12.8 7.3-2 1.8-3.6 3.7-4.7 5.8-1.2 2.1-1.7 4.9-1.7 8.2v56.3c0 3.1.3 5.7 1 7.6.6 1.9 1.6 3.5 2.8 4.6.6.6 1.3 1.1 2.1 1.5-.3-.6-.6-1.3-.9-2.1z"/><path class="st9" d="M493.6 160.5c-.7-1.9-1-4.5-1-7.6v-44.3c0-3.9-.9-6.7-2.6-8.5-.7-.8-1.6-1.3-2.5-1.8.8 1.7 1.2 3.8 1.2 6.3v44.3c0 3.1.3 5.7 1 7.6.6 1.9 1.6 3.5 2.8 4.6.6.6 1.3 1.1 2.1 1.5-.4-.6-.7-1.3-1-2.1z"/></g><g><path class="st9" d="M572.3 144.3c1.8 0 3.4-.3 4.9-1 1.4-.7 2.6-1.5 3.4-2.3V99.7c-1.2-.9-2.5-1.5-4-1.9v39.1c-.8.9-1.9 1.7-3.4 2.3-1.5.7-3.1 1-4.9 1-3 0-5.6-.7-7.8-2.1 0 .1.1.1.1.2 2.7 4 6.6 6 11.7 6zM541.6 156.3c-3.6-4.2-6.3-9.3-8.1-15.3-1.9-5.9-2.8-12.7-2.8-20.2 0-8.2 1-15.4 3-21.5s4.8-11.1 8.3-15.1c3.5-4 7.7-7 12.5-8.9 4.7-1.9 9.9-2.9 15.4-2.9 2 0 3.9.2 5.9.7 1.9.4 3.4 1 4.6 1.6V44.4c1-.4 2.6-.8 4.8-1.2 2.2-.4 4.4-.7 6.8-.7 2.2 0 4.2.2 5.9.6.8.2 1.6.4 2.3.8-.5-1-1.1-1.8-1.8-2.5-1.2-1.1-2.7-1.9-4.4-2.2-1.8-.4-3.7-.6-5.9-.6-2.3 0-4.6.2-6.8.7-2.2.4-3.8.8-4.8 1.2v30.4c-1.2-.6-2.8-1.2-4.6-1.6-1.9-.4-3.9-.7-5.9-.7-5.5 0-10.6 1-15.4 2.9-4.8 1.9-8.9 4.9-12.5 8.9-3.6 4-6.3 9-8.3 15.1-2 6.1-3 13.2-3 21.5 0 7.5.9 14.2 2.8 20.2 1.8 5.9 4.5 11 8.1 15.3 1.3 1.6 2.7 3 4.3 4.3-.2-.3-.3-.4-.4-.5z"/></g><g><path class="st9" d="M629.2 139.2c2.3 6.4 4.4 10.7 6.4 13 1.2 1.4 2.4 2.5 3.5 3.3-1.8-2.4-3.8-6.5-5.9-12.4-1.1-3.1-2.3-6.6-3.5-10.5-1.3-3.9-2.5-8.3-3.9-13.3s-2.8-10.7-4.2-17.2c-1.5-6.4-3-13.8-4.6-22.2 1.4-1.7 3.3-3.3 5.6-4.6 2.3-1.3 4.9-2 7.7-2s5.2.6 7.2 1.7c-.7-1.3-1.6-2.3-2.5-3-2.3-1.8-5.2-2.7-8.7-2.7-2.8 0-5.4.7-7.7 2-2.4 1.3-4.2 2.8-5.6 4.6 1.6 8.4 3.1 15.8 4.6 22.2 1.4 6.4 2.8 12.2 4.2 17.2 1.3 5 2.6 9.4 3.9 13.3 1.2 4 2.4 7.5 3.5 10.6zM656 137.9h.6c1.2-4.2 2.4-8.9 3.5-13.9s2.3-10.2 3.4-15.5c1.1-5.3 2.1-10.6 3.1-15.9.9-5.3 1.8-10.5 2.5-15.7 3.6-2.4 7.5-3.6 11.9-3.6 2.6 0 4.9.5 6.8 1.6-.5-1.1-1.3-2-2.1-2.8-2.3-1.9-5.2-2.8-8.7-2.8-4.3 0-8.2 1.2-11.9 3.6-.7 5.1-1.5 10.3-2.5 15.7-1 5.3-2 10.6-3.1 15.9-1.1 5.3-2.2 10.5-3.4 15.5-.7 3.1-1.4 6.1-2.2 8.9l2.1 9zM626.8 182.8c3.2-3.1 6.4-6.6 9.6-10.4 3.2-3.8 6.1-7.7 8.7-11.7-1.4-.5-2.9-1.6-4.5-3.3-2.5 3.8-5.2 7.4-8.2 11-3.2 3.8-6.4 7.3-9.6 10.4.5 5 2 9.1 4.7 12.2.9 1.1 1.9 2 3 2.7-2.1-3-3.3-6.6-3.7-10.9z"/></g><g><path class="st8" d="M289.9 82.6c0 5.6-1.3 10.5-3.9 14.5-2.6 4.1-6.1 7-10.5 8.9 2.5.9 4.7 2.1 6.8 3.6 4-1.9 7.3-4.7 9.7-8.5 2.6-4.1 3.9-8.9 3.9-14.5 0-11.2-3.5-19.6-10.4-24.9-1.5-1.2-3.2-2.2-5-3.1 6.3 5.3 9.4 13.4 9.4 24zM260.4 77.4c-2.2-2-5.6-3-10.1-3-1.5 0-3.2.1-5.2.2s-3.5.3-4.6.6v22.1h6V79.1c1.1-.2 2.6-.4 4.6-.6 1.9-.1 3.7-.2 5.2-.2 2.1 0 4 .2 5.6.7-.4-.5-.9-1.1-1.5-1.6zM294 119.6c-2.8-3.8-6.1-6.7-10-8.5 1.5 1.3 2.8 2.8 4 4.5 3.3 4.6 5 10.4 5 17.4 0 12.4-3.7 21.5-11 27.5s-17.9 8.9-31.7 8.9c-1.7 0-3.7-.1-6-.2s-4.7-.4-7.1-.8c-2.5-.4-4.9-.8-7.3-1.4-1.9-.4-3.6-1-5.3-1.7 1.2 1.4 2.8 2.5 4.7 3.4 2 1 4.2 1.8 6.6 2.3s4.8 1 7.3 1.4c2.4.4 4.8.6 7.1.8 2.3.1 4.3.2 6 .2 13.8 0 24.4-3 31.7-8.9s11-15.1 11-27.5c0-6.9-1.7-12.7-5-17.4zM246.5 144.1v-19.9h12.3c2.2 0 4.1.2 5.8.6-.5-.8-1-1.5-1.7-2-2.2-1.7-5.6-2.6-10.1-2.6h-12.3V143c1.4.5 3.2.8 5.4 1 .2.1.4.1.6.1z"/></g><path class="st8" d="M358.4 80.2c-1.3-1.1-2.8-1.9-4.5-2.5 1.8 2.3 2.7 5.6 2.7 9.8 0 1.8-.2 3.5-.6 5.2-.4 1.7-.9 3.2-1.5 4.6-2.1 0-4.3.1-6.4.4-2.2.3-4.4.6-6.5 1.1-2.1.5-4.1 1-5.9 1.6-1.9.6-3.4 1.2-4.7 2v63.9c-1 .4-2.6.8-4.7 1.1-2.2.4-4.4.6-6.7.6-2.1 0-4-.2-5.8-.5.4.6.9 1.2 1.4 1.7 1.2 1.1 2.7 1.9 4.4 2.2 1.7.4 3.7.6 5.9.6 2.3 0 4.5-.2 6.7-.6 2.1-.4 3.7-.8 4.7-1.1v-63.9c1.3-.8 2.9-1.4 4.7-2 1.8-.6 3.8-1.1 5.9-1.6 2.1-.5 4.2-.9 6.5-1.1 2.2-.2 4.3-.4 6.4-.4.6-1.4 1.1-2.9 1.5-4.6.4-1.7.6-3.4.6-5.2.1-5.2-1.3-9-4.1-11.3z"/><g><path class="st8" d="M402.3 98.7c-2.5-1.6-6.2-2.3-11-2.3-3.8 0-7.5.5-11.1 1.5-2.5.7-4.9 1.5-7.1 2.5v.1c.9 2.3 2 4 3.3 5.2 2.9-1.5 6.2-2.7 9.8-3.8 3.6-1 7.3-1.5 11.1-1.5 2.9 0 5.5.3 7.6.9-.7-1.1-1.5-2-2.6-2.6zM392.8 145.9c-.6-1.2-.9-2.6-.9-4.2 0-2.5.9-4.4 2.7-5.6 1.8-1.2 4.1-2 6.9-2.2l4.8-.5v-4.6l-10.8 1.1c-2.8.3-5.1 1-6.9 2.2-1.8 1.3-2.7 3.1-2.7 5.6 0 2.5.8 4.5 2.3 6.1 1 1.1 2.6 1.8 4.6 2.1z"/><path class="st8" d="M434.3 95.5c-1.7-4.3-4.1-7.9-7.3-10.7-1.9-1.7-4-3.1-6.3-4.2.1.1.2.1.3.2 3.2 2.8 5.6 6.4 7.3 10.7 1.7 4.3 2.5 9.4 2.5 15.3v42c0 3.3-.7 5.9-2.2 8-1.5 2.1-3.2 3.8-5.2 5.3-6.5 4.9-15.7 7.3-27.5 7.3-5.3 0-10.1-.6-14.3-1.9-2-.6-3.9-1.3-5.6-2.2l.6.6c3 2.5 6.7 4.4 11 5.6 4.2 1.2 9 1.9 14.3 1.9 11.8 0 20.9-2.4 27.5-7.3 2-1.5 3.7-3.3 5.2-5.3 1.4-2.1 2.2-4.7 2.2-8v-42c.1-5.9-.8-11-2.5-15.3z"/></g><g><path class="st8" d="M490 100.2c-1.8-1.8-4.1-2.7-7.1-2.7-2 0-4 .3-5.9.9-2 .6-3.6 1.6-5 2.8v65.1c-1 .4-2.6.8-4.7 1.1-2.2.4-4.4.6-6.7.6-2.1 0-4-.2-5.8-.5.4.6.9 1.2 1.4 1.7 1.2 1.1 2.7 1.9 4.4 2.2 1.7.4 3.7.6 5.9.6 2.3 0 4.5-.2 6.7-.6 2.1-.4 3.7-.8 4.7-1.1v-65.1c1.4-1.2 3.1-2.2 5-2.8 2-.6 3.9-.9 5.9-.9.8 0 1.5.1 2.2.2-.2-.6-.5-1.1-1-1.5zM515 85.8c-2.2-2.2-4.7-4-7.6-5.4.5.5 1.1.9 1.6 1.4 6.1 6.2 9.2 14.8 9.2 25.8v58.7c-1 .4-2.6.8-4.7 1.1-2.2.4-4.4.6-6.7.6-2.1 0-4-.2-5.8-.5.4.6.9 1.2 1.4 1.7 1.2 1.1 2.7 1.9 4.4 2.2 1.7.4 3.7.6 5.9.6 2.3 0 4.5-.2 6.7-.6 2.1-.4 3.7-.8 4.7-1.1v-58.7c.1-11-3-19.6-9.1-25.8z"/></g><g><path class="st8" d="M567.5 143.6l-.9-1.2c-2.7-3.9-4-9.8-4-17.5 0-7.9 1.4-13.7 4.3-17.6 2.9-3.9 7-5.8 12.5-5.8.4 0 .8 0 1.2.1v-1.8c-2-1.5-4.4-2.2-7.2-2.2-5.4 0-9.6 1.9-12.5 5.8-2.9 3.9-4.3 9.8-4.3 17.6 0 7.8 1.3 13.6 4 17.5 1.8 2.5 4.1 4.2 6.9 5.1z"/><path class="st8" d="M611 53.9c-.6-1.9-1.5-3.5-2.7-4.6s-2.7-1.9-4.4-2.2h-.2c.5.8 1 1.8 1.3 2.9.6 1.9.9 4.5.9 7.6v88.9c0 5.9-2.2 10.6-6.6 14.1-2.9 2.4-6.7 4.5-11.2 6.3-4.6 1.8-9.9 2.7-15.9 2.7-6.5 0-12.3-1.1-17.5-3.4-.9-.4-1.7-.8-2.5-1.2 2.5 2.1 5.4 3.9 8.5 5.2 5.1 2.2 11 3.4 17.5 3.4 6 0 11.3-.9 15.9-2.7 4.6-1.8 8.3-3.9 11.2-6.3 4.4-3.5 6.6-8.2 6.6-14.1v-89c0-3.1-.3-5.6-.9-7.6z"/></g><g><path class="st8" d="M644.2 86.4L656 138h.6c.8-2.9 1.6-5.9 2.4-9.1l-8.8-38.5c-1.1-5-2.8-8.4-5.1-10.2-1.2-1-2.7-1.7-4.2-2.1 1.3 1.9 2.5 4.7 3.3 8.3zM695.6 80.3c-1.3-1.1-2.8-1.8-4.4-2.3 1.3 1.9 1.9 4.6 1.9 8 0 3.4-.4 7.3-1 11.7-.7 4.4-1.6 9.2-2.8 14.2-1.2 5-2.5 10.2-4 15.5-1.6 5.3-3.2 10.5-4.9 15.7-1.7 5.1-3.5 10-5.2 14.5-1.8 4.6-3.6 8.7-5.2 12.3-2.8 6.1-5.4 11.1-7.8 15-2.4 3.9-4.7 6.9-6.9 9.1-2.2 2.2-4.4 3.7-6.6 4.5-2.2.8-4.5 1.2-6.9 1.2-1.5 0-2.8-.2-4.1-.6 2.6 3.1 6 4.6 10.1 4.6 2.4 0 4.7-.4 6.9-1.2 2.2-.8 4.4-2.3 6.6-4.5 2.2-2.2 4.5-5.2 6.9-9.1 2.4-3.9 5-8.9 7.8-15 1.7-3.6 3.5-7.7 5.2-12.3 1.8-4.6 3.5-9.4 5.2-14.5 1.7-5.1 3.3-10.3 4.9-15.7 1.5-5.3 2.9-10.5 4-15.5s2.1-9.7 2.8-14.2c.7-4.4 1-8.3 1-11.7 0-4.6-1.2-7.9-3.5-9.7z"/></g></g></g></switch></svg>