<svg id="Layer_1" xmlns="http://www.w3.org/2000/svg" viewBox="0 0 161.1 242.1"><style>.st0{fill:none}.st1{fill:#f2f2f2}.st2{fill:#ccc}.st3{fill:#e6e6e6}.st4{fill:#2d1214}.st7{fill:#e4bcba}</style><path class="st0" d="M71.4 161.8c-.7 0-1.3 0-2-.1.7 0 1.4.1 2 .1z"/><path class="st1" d="M134.8 7.6h-.4c-.1 4.2-24.2 7.6-53.9 7.6s-53.9-3.4-53.9-7.6h-.4s-84 154.2 48.5 154.2h11.7c132.4 0 48.4-154.2 48.4-154.2z"/><ellipse class="st2" cx="80.6" cy="7.6" rx="53.9" ry="7.6"/><ellipse class="st1" cx="80.6" cy="7.6" rx="45.6" ry="6.4"/><path class="st3" d="M111.7 214.6c-7.9-.6-12.4-3.9-12.4-3.9l-.3-.1c.1.1.2.1.2.1s-12.9-6.7-12.9-26.4c0-11.3 2.9-18.5 5.5-22.6-1.8.1-3.5.1-5.4.1H74.7c-3.6 0-7-.1-10.3-.3 2.6 4.1 5.6 11.3 5.6 22.8 0 19.7-12.9 26.4-12.9 26.4s.1 0 .2-.1l-.3.1s-4.5 3.4-12.4 3.9-38.8 2.8-38.8 11.2 28.9 16.3 68.7 16.3c1.3 0 2.4 0 3.6-.1 1.1.1 2.3.1 3.6.1 39.7 0 68.7-7.9 68.7-16.3s-30.9-10.6-38.7-11.2z"/><path class="st2" d="M91.9 203.6c-2.3.6-5.2 1-8.5 1H73c-3.4 0-6.2-.4-8.5-1-3.5 5-7.3 7-7.3 7s5.3 3.9 15.9 3.9h10.3c10.5 0 15.9-3.9 15.9-3.9s-3.9-1.9-7.4-7zm54.7 17.6c-9.1 6.1-33.7 11-64.8 11-1.3 0-2.4 0-3.6-.1-1.1.1-2.3.1-3.6.1-31.2 0-55.7-4.8-64.8-11-2.4 1.3-3.9 2.8-3.9 4.7 0 8.4 28.9 16.3 68.7 16.3 1.3 0 2.4 0 3.6-.1 1.1.1 2.3.1 3.6.1 39.7 0 68.7-7.9 68.7-16.3-.1-1.9-1.5-3.4-3.9-4.7zm-71.9-49.4h13c1.1-4.5 2.6-7.8 4.1-10.1-1.8.1-3.5.1-5.4.1H74.7c-3.6 0-7-.1-10.3-.3 1.5 2.3 3.1 5.7 4.2 10.3h6.1z"/><path class="st3" d="M9.8 221.2c9.1 6.1 33.7 11 64.8 11 1.3 0 2.4 0 3.6-.1 1.1.1 2.3.1 3.6.1 31.2 0 55.7-4.8 64.8-11h.1c-8.5-4.7-28.8-6.1-34.9-6.6-7.9-.6-12.4-3.9-12.4-3.9h-.1s-5.3 3.9-15.9 3.9H73c-10.5 0-15.9-3.9-15.9-3.9H57s-4.5 3.4-12.4 3.9c-6.1.4-26.3 1.9-34.8 6.6zm137.7.5c.1.1.2.1.3.2-.1-.1-.2-.1-.3-.2zm.8.6c.1.1.2.2.3.2-.1-.1-.2-.2-.3-.2zm.9.8c-.1-.1-.2-.2-.2-.3.1.1.1.2.2.3zm1.1 1.8c0 .1.1.2.1.2-.1-.1-.1-.1-.1-.2zm-.3-.7c0 .1.1.2.1.3 0-.2-.1-.3-.1-.3zm-.5-.7c.1.1.1.2.2.3 0-.1-.1-.2-.2-.3zm-142.9.2c.1-.1.1-.2.2-.3 0 .2-.1.3-.2.3zm-.3.7c0-.1.1-.2.1-.3 0 .1-.1.2-.1.3zm-.3.7c0-.1 0-.2.1-.2 0 .1-.1.1-.1.2zm1.8-2.6c.1-.1.2-.2.3-.2-.1 0-.2.1-.3.2zm.8-.6c.1-.1.2-.1.3-.2-.1.1-.2.1-.3.2zm-1.2 1c-.1.1-.2.2-.2.3 0-.2.1-.3.2-.3z"/><path class="st4" d="M146 142.1l.4-.4c.5-.5.9-1 1.3-1.5.1-.1.2-.2.3-.4.3-.4.7-.8 1-1.2.1-.2.3-.3.4-.5l.9-1.2c.1-.2.2-.3.3-.5.4-.5.7-1.1 1.1-1.6.1-.1.1-.2.2-.3.3-.5.6-1 .9-1.4.1-.2.2-.4.3-.5.2-.4.5-.8.7-1.3.1-.2.2-.4.3-.5l.9-1.8c.3-.6.5-1.2.8-1.8.1-.2.2-.4.2-.6.2-.4.4-.9.5-1.3.1-.2.2-.4.2-.6.2-.5.4-1.1.6-1.6 0-.1.1-.2.1-.3.2-.6.4-1.3.6-1.9.1-.2.1-.4.2-.5.1-.5.3-1 .4-1.4.1-.2.1-.4.2-.6.1-.5.3-1 .4-1.6 0-.1.1-.3.1-.4.1-.7.3-1.3.4-2 0-.2.1-.3.1-.5.1-.5.2-1 .3-1.6 0-.2.1-.4.1-.6.1-.5.2-1 .2-1.6 0-.2 0-.3.1-.5.1-.7.2-1.4.2-2.1v-.4c.1-.6.1-1.1.2-1.7v-.6c0-.5.1-1 .1-1.6v-.6c0-.7.1-1.4.1-2.1v-4.9c0-.7 0-1.4-.1-2.1 0-.7-.1-1.5-.1-2.2v-.5c0-.6-.1-1.1-.1-1.7v-.6c-.1-.6-.1-1.3-.2-1.9v-.2c-.1-.7-.2-1.5-.2-2.2 0-.1 0-.3-.1-.4-.1-.6-.1-1.2-.2-1.8 0-.2-.1-.4-.1-.6l-.3-1.8c0-.1 0-.2-.1-.4-.1-.7-.2-1.5-.4-2.2v-.3c-.1-.6-.2-1.3-.3-1.9 0-.2-.1-.4-.1-.5l-.3-1.8c0-.1-.1-.3-.1-.4-.1-.7-.3-1.5-.5-2.2-.2-.7-.3-1.4-.5-2.1 0-.2-.1-.3-.1-.5-.1-.6-.3-1.2-.4-1.8 0-.1-.1-.3-.1-.4-.3-1.4-.7-2.9-1.1-4.3 0-.1-.1-.2-.1-.4-.2-.6-.3-1.2-.5-1.8 0-.1-.1-.3-.1-.4l-1.2-4.2c0-.1-.1-.2-.1-.3-.2-.6-.4-1.2-.5-1.8 0-.1-.1-.2-.1-.4-.2-.7-.4-1.3-.6-2h-.1c-2.3-5.7-10.3-29.5-25.2-16.1-10 9-5.5 39.5-7.6 50.9-5 26.3-26 58.7-73.2 47.1-9.6-2.4-25.6-15.7-35.1-18.5-10.6-3.1-6.7 11.6-5.3 15.4 8.5 18.2 27 31.5 62.5 32.9h1c.6 0 1.3 0 2 .1h19.7c.9 0 1.7-.1 2.5-.1.4 0 .7 0 1.1-.1 1-.1 1.9-.1 2.9-.2h.5c1.1-.1 2.2-.2 3.2-.3.3 0 .6-.1.9-.1.8-.1 1.6-.2 2.3-.3.3 0 .7-.1 1-.1.8-.1 1.6-.2 2.4-.4.2 0 .4-.1.7-.1 1-.2 1.9-.3 2.9-.5.2 0 .5-.1.7-.1.7-.1 1.4-.3 2.1-.5.3-.1.6-.1.9-.2.7-.2 1.4-.3 2-.5.2-.1.5-.1.7-.2.9-.2 1.7-.5 2.6-.7.2-.1.3-.1.5-.2.7-.2 1.4-.4 2-.7.3-.1.5-.2.8-.3.6-.2 1.2-.4 1.7-.6.2-.1.5-.2.7-.3.8-.3 1.5-.6 2.3-1 .1 0 .1-.1.2-.1.7-.3 1.3-.6 2-.9.2-.1.4-.2.7-.3.5-.3 1-.5 1.5-.8l.6-.3c.6-.3 1.2-.7 1.8-1 .1 0 .1-.1.2-.1.6-.4 1.3-.8 1.9-1.2.2-.1.4-.2.5-.4.4-.3.9-.6 1.3-.9.2-.1.4-.3.6-.4.5-.3.9-.7 1.4-1.1l.3-.3c.5-.4 1.1-.9 1.6-1.4l.4-.4c.4-.3.8-.7 1.1-1.1l.5-.5c.1.3.5-.1.8-.5z"/><path class="st2" d="M134.8 7.6h-.4c0 .9-1.2 1.8-3.5 2.7 16.7 36.9 54.5 141.5-54.6 141.5H64.7c-24.7 0-41.8-5.4-53.4-14.1 10.8 14.4 30.3 24.1 63.4 24.1h11.7c132.4 0 48.4-154.2 48.4-154.2z"/><path class="st3" d="M12.9 139.8l-.3-.3c.2.1.3.2.3.3zm1.3 1.4l-.3-.3.3.3zm41 19.3c.3 0 .7.1 1 .1-.4 0-.7 0-1-.1zm5.7.7c.4 0 .8.1 1.2.1-.4-.1-.8-.1-1.2-.1zm-2.9-.3c.4 0 .8.1 1.1.1-.4 0-.7-.1-1.1-.1zm-42.8-18.6l.3.3-.3-.3zm48.7 19.1c.4 0 .8.1 1.2.1-.4 0-.8 0-1.2-.1zm-52.2-23.1c-.1-.1-.1-.2-.2-.2.1 0 .2.1.2.2zM134 8.6zm.2-.2s0-.1.1-.1c-.1 0-.1 0-.1.1zm.2-.4zM64.7 151.8h11.7c109.1 0 71.3-104.7 54.6-141.5.1 0 .1 0 .2-.1-1.4.5-3.2 1-5.3 1.5 17.4 43.4 39.8 130.1-59.5 130.1H54.7c-20.6 0-36-3.7-47.2-10 1.1 2.1 2.4 4.1 3.8 6 11.6 8.7 28.8 14 53.4 14zM133.6 9zm-1.2.7c.1 0 .1-.1.2-.1-.1 0-.2 0-.2.1zm.6-.3l.1-.1s-.1 0-.1.1zm-1.3.6c.1 0 .2-.1.2-.1s-.1 0-.2.1zM43.9 158.2c.3.1.6.2.9.2-.3 0-.6-.1-.9-.2zm-22.6-10.4l.3.3c0-.2-.2-.3-.3-.3zm3.3 2.2c.2.1.4.2.5.3-.1 0-.3-.1-.5-.3zm-1.7-1.1c.2.1.3.2.5.3-.1-.1-.3-.2-.5-.3zm3.5 2.2l.6.3-.6-.3zm-9.8-7.3l.2.2c0-.1-.1-.2-.2-.2zm35.9 16.3c.2 0 .4.1.6.1-.2 0-.4-.1-.6-.1zm15.7 1.6c-.4 0-.8 0-1.2-.1.4 0 .8 0 1.2.1zm-39.9-9.5c.2.1.4.2.5.3-.2-.1-.4-.2-.5-.3zm43.1 9.6h-1c.3-.1.7 0 1 0zm-25-2.9c.3.1.5.1.8.2-.2-.1-.5-.2-.8-.2zm-16-5.6c.1.1.2.1.4.2-.2-.1-.3-.2-.4-.2zm11.1 4.3l.9.3c-.3-.2-.6-.3-.9-.3zm7.8 1.9c.2 0 .3.1.5.1-.2 0-.3-.1-.5-.1zm-10.1-2.7c.3.1.6.2.8.3-.3-.1-.6-.2-.8-.3zm-4.4-1.5c.2.1.4.1.5.2-.1-.1-.3-.2-.5-.2zm2.2.8c.2.1.5.2.7.3-.3-.2-.5-.2-.7-.3z"/><path class="st4" d="M146 142.1c7.7-8.1 12.1-18.7 13.9-29.6 1.8-11.1 1.2-22.5-.5-33.5-.9-5.6-2-11.1-3.4-16.6-1.2-4.6-2.5-9.3-4.1-13.7-2-5.3-4.3-10.9-8.3-15-1.9-2-4.4-3.7-7.3-3.8-3.5-.2-6.9 1.9-9.3 4.3-2.3 2.2-3.6 5.2-4.4 8.2-1.1 3.8-1.6 7.7-1.9 11.6-.6 8-.2 16.1-.5 24.1-.2 6.3-1.6 12.3-3.7 18.2-2.3 6.5-5.6 12.6-9.8 18.1-4.4 5.7-9.9 10.5-16.2 14-7.2 3.9-15.3 5.8-23.5 6-4.9.1-9.8-.3-14.7-1.2-4.4-.8-8.5-1.8-12.4-3.9-8.2-4.2-15.5-9.9-23.8-13.9-2.6-1.3-6.5-3.3-9.4-2-2.4 1.1-2.6 4.2-2.6 6.5.1 2.7.7 5.4 1.5 7.9.9 2.8 2.6 5.5 4.2 8 4 5.9 9.2 10.9 15.2 14.6 7.3 4.6 15.7 7.4 24.1 9.1 9.1 1.8 18.3 2.3 27.6 2.3 7.4 0 14.9.1 22.3-.5 11.7-1 23.4-3.5 33.8-9.1 5-2.7 9.4-6.1 13.2-10.1z"/><path class="st2" d="M134.8 7.6h-.4c0 .9-1.2 1.8-3.5 2.7 16.7 36.9 54.5 141.5-54.6 141.5H64.7c-24.7 0-41.8-5.4-53.4-14.1 10.8 14.4 30.3 24.1 63.4 24.1h11.7c132.4 0 48.4-154.2 48.4-154.2z"/><path class="st0" d="M38.7 156.7s-.1 0 0 0c-.1 0 0 0 0 0zm6.5 1.9h-.1.1zm29.5 3.2h2.1c-6.9 0-13.7-.3-20.5-1.1 5.6.7 11.7 1.1 18.4 1.1zm11.7 0c4.5 0 8.7-.2 12.7-.5-4.5.4-9 .5-13.5.5h.8zm-38.5-2.6c-.2 0-.4-.1-.7-.1.2 0 .5.1.7.1zm7.9 1.4c-.8-.1-1.6-.2-2.3-.3.7.1 1.5.2 2.3.3zm-4.2-.7l-1.8-.3 1.8.3z"/><path d="M146 142.1c7.7-8.1 12.1-18.7 13.9-29.6 1.8-11.1 1.2-22.5-.5-33.5-.9-5.6-2-11.1-3.4-16.6-1.2-4.6-2.5-9.3-4.1-13.7-2-5.3-4.3-10.9-8.3-15-1.2-1.3-2.7-2.4-4.3-3.1 16.4 45.3 30.1 121.3-62.9 121.3H64.7c-24.7 0-41.8-5.4-53.4-14.1 6 8.1 14.9 14.7 27.3 18.9h.1c2 .7 4.2 1.3 6.4 1.9h.1c.7.2 1.3.3 2 .5.2 0 .4.1.7.1.6.1 1.3.3 1.9.4l1.8.3c.6.1 1.2.2 1.9.3.8.1 1.5.2 2.3.3.2 0 .3 0 .5.1 6.8.9 13.6 1.1 20.5 1.1h8.8c4.5 0 9-.1 13.5-.5 11.7-1 23.4-3.5 33.8-9.1 4.9-2.6 9.3-6 13.1-10z" fill="#817172"/><path class="st0" d="M120.6 143.4l-.6.3c.2-.2.4-.3.6-.3zm8.5-5.2c-.3.2-.6.4-.8.6.3-.2.5-.4.8-.6zm2.3-1.7c-.3.2-.5.4-.8.6.3-.2.5-.4.8-.6zm-13.7 8.2c-.3.1-.7.3-1 .4.3-.2.7-.3 1-.4zm9-4.8c-.3.2-.5.4-.8.5.2-.1.5-.3.8-.5zm-39.5 11.5c-.5 0-1.1.1-1.6.1.5 0 1.1 0 1.6-.1zm27.5-5.5c-.4.1-.8.3-1.2.4.4-.1.8-.3 1.2-.4zm-15.1 4c-.4.1-.7.1-1.1.2.3-.1.7-.1 1.1-.2zm-4 .6c-.5.1-1 .1-1.5.2.6 0 1.1-.1 1.5-.2zm-4.1.5c-.5.1-1.1.1-1.6.2.6-.1 1.1-.1 1.6-.2zm42-16.3l-.6.6c.1-.2.4-.4.6-.6zm-29.7 14.4c-.2 0-.3.1-.5.1.2 0 .3-.1.5-.1zm7.7-2.1c-.4.1-.8.3-1.2.4.4-.2.8-.3 1.2-.4zm-3.5 1c-.4.1-.8.2-1.1.3.3-.1.7-.2 1.1-.3zm15.8-6.4c-.2.1-.3.2-.5.3.2-.1.3-.2.5-.3zm26.1-38.5zm-14.5 29.8l-.2.2c.1-.1.1-.2.2-.2zm13.3-24.3c-.1.3-.2.6-.2.9.1-.4.2-.6.2-.9zm2.2-14.2c0 .4 0 .7-.1 1.1.1-.4.1-.8.1-1.1zm-2.9 16.7l-.3.9.3-.9zm3-19.5zm-.3 5.5c0 .3-.1.7-.1 1 0-.3.1-.7.1-1zm-1.4 8.9c0 .2-.1.4-.2.7.1-.2.2-.5.2-.7zm-9.8 22.2c-.2.2-.3.5-.5.7.1-.3.3-.5.5-.7zm-1.8 2.2c-.1.2-.3.3-.4.5.1-.2.2-.3.4-.5zm9.5-16.8c-.1.3-.2.6-.3.8.1-.2.2-.5.3-.8zM141 126c-.2.3-.3.5-.5.8.2-.3.4-.6.5-.8zm5.2-9.8c-.1.2-.2.4-.3.7.2-.2.2-.5.3-.7zm-2.5 5.4l-.3.6.3-.6zm-1.3 2.2c-.2.3-.3.5-.5.8.2-.3.4-.6.5-.8zm8-23.9c0 .3-.1.6-.1.9 0-.3 0-.6.1-.9zm-1.7-35.6l.3 1.5-.3-1.5zm1.1 6.5c.1.5.1 1 .2 1.5-.1-.6-.2-1-.2-1.5zm-.6-3.7c.1.5.2.9.2 1.4 0-.5-.1-.9-.2-1.4zm-1-5.5l.3 1.5-.3-1.5zm-2.4-10.3c.4 1.4.7 2.8 1.1 4.2-.4-1.4-.8-2.8-1.1-4.2zm1.8 7.5c.1.5.2 1 .3 1.6-.1-.5-.2-1.1-.3-1.6zm-.6-2.7c.1.5.3 1.1.4 1.6-.2-.5-.3-1-.4-1.6zm4.1 29.3zm-5.9-36.1c.2.6.3 1.3.5 1.9-.1-.7-.3-1.3-.5-1.9zm5 24.6c.1.4.1.8.1 1.2 0-.4-.1-.8-.1-1.2zm.9 15zm-.2-6.6c0 .4 0 .8.1 1.1 0-.3-.1-.7-.1-1.1zm-.4-5.6c0 .4.1.8.1 1.3 0-.5-.1-.9-.1-1.3zm.2 2.8c0 .4.1.8.1 1.2 0-.4 0-.8-.1-1.2zM41.1 149.8c-.3-.1-.7-.1-1.1-.2.4.1.7.2 1.1.2zm-3.7-.7c-.3-.1-.6-.1-.9-.2.3.1.6.1.9.2zm7.9 1.4c-.5-.1-1.1-.1-1.6-.2.6.1 1.1.1 1.6.2zm37.2 1.2c-.5 0-1 0-1.5.1.6-.1 1-.1 1.5-.1zm-33.2-.7c-.6-.1-1.2-.1-1.7-.2.6.1 1.1.1 1.7.2zm15.4.8c-1.5 0-3.1 0-4.5-.1 1.5.1 3 .1 4.5.1zm-10.9-.4c-.7-.1-1.4-.1-2.1-.2.6.1 1.3.2 2.1.2zm5.5.3c-1.2 0-2.3-.1-3.5-.1 1.2 0 2.3.1 3.5.1zm-29.1-4.5c-.1 0-.2-.1-.3-.1.1 0 .2 0 .3.1zM139.3 30.5c1.3 3.5 2.5 7.1 3.7 10.9-1.2-3.7-2.5-7.4-3.7-10.9zm-118 113.2c-.1 0-.1-.1-.2-.1 0 0 .1.1.2.1zm122.5-99.5c.2.6.4 1.2.5 1.8-.1-.6-.3-1.2-.5-1.8zM24.2 145c-.1 0-.2-.1-.3-.1.1 0 .2 0 .3.1zm120.3-98.2c.2.6.3 1.2.5 1.8-.1-.6-.3-1.2-.5-1.8zM27.1 146.1c-.1 0-.2-.1-.2-.1 0 .1.1.1.2.1zm6.8 2.1c-.2-.1-.5-.1-.8-.2.3.1.5.2.8.2zM143 41.7c.2.6.4 1.3.6 1.9-.2-.6-.4-1.3-.6-1.9z"/><path d="M151.1 86.2v-.8c0-.6 0-1.3-.1-1.9 0-.4 0-.8-.1-1.1 0-.5-.1-1.1-.1-1.6 0-.4-.1-.8-.1-1.2 0-.5-.1-1-.1-1.5 0-.4-.1-.8-.1-1.3-.1-.5-.1-1-.2-1.5 0-.4-.1-.8-.1-1.2-.1-.5-.1-1.1-.2-1.6s-.1-1-.2-1.5c-.1-.8-.2-1.5-.3-2.3-.1-.5-.2-.9-.2-1.4-.1-.4-.2-.9-.2-1.3l-.3-1.5c-.1-.4-.2-.8-.2-1.3l-.3-1.5c-.1-.4-.2-.8-.2-1.2-.1-.5-.2-1-.3-1.6-.1-.4-.2-.7-.2-1.1-.1-.5-.2-1.1-.4-1.6 0-.2-.1-.4-.2-.6-.3-1.4-.7-2.8-1.1-4.2v-.1c-.2-.6-.3-1.3-.5-1.9-.1-.2-.1-.5-.2-.7-.2-.6-.3-1.2-.5-1.8-.1-.2-.1-.5-.2-.7-.2-.6-.4-1.2-.5-1.8-.1-.2-.1-.4-.2-.6-.2-.6-.4-1.3-.6-1.9 0-.1-.1-.2-.1-.3-1.2-3.8-2.4-7.5-3.7-10.9-1-.4-2-.7-3-.7-1.2-.1-2.5.2-3.6.6C147.2 76.2 153.1 142 66.6 142H54.7c-20.6 0-36-3.7-47.2-10 1.1 2.1 2.4 4.1 3.8 6 2.9 2.2 6.1 4.1 9.8 5.9.1 0 .1.1.2.1.9.4 1.7.8 2.6 1.2.1 0 .2.1.3.1.9.4 1.7.7 2.6 1 .1 0 .2.1.2.1.9.3 1.9.7 2.8 1 .1 0 .2.1.3.1.9.3 1.9.6 2.9.9.2.1.5.1.8.2.9.2 1.7.5 2.6.7.3.1.6.1.9.2l2.7.6c.3.1.7.1 1.1.2.9.2 1.7.3 2.6.5.5.1 1.1.1 1.6.2.8.1 1.5.2 2.3.3.6.1 1.1.1 1.7.2.8.1 1.5.2 2.3.2.7.1 1.4.1 2.1.2.7 0 1.4.1 2.1.1 1.1.1 2.3.1 3.5.1h.9c1.5 0 3 .1 4.5.1h11.7c1.6 0 3.1 0 4.7-.1.5 0 1 0 1.5-.1 1 0 2-.1 3-.1.6 0 1.1-.1 1.6-.1.9-.1 1.8-.1 2.7-.2.5 0 1.1-.1 1.6-.2.9-.1 1.8-.2 2.6-.3.5-.1 1-.1 1.5-.2.9-.1 1.9-.3 2.8-.4.4-.1.7-.1 1.1-.2 1.3-.2 2.5-.5 3.7-.7.2 0 .3-.1.5-.1 1-.2 2-.5 3-.7.4-.1.8-.2 1.1-.3.8-.2 1.5-.4 2.3-.7.4-.1.8-.3 1.2-.4.7-.2 1.4-.5 2.1-.7.4-.1.8-.3 1.2-.4.7-.3 1.3-.5 2-.8.3-.1.7-.3 1-.4.8-.3 1.5-.7 2.3-1l.6-.3c.9-.5 1.8-.9 2.7-1.4.2-.1.3-.2.5-.3.7-.4 1.4-.8 2-1.2.3-.2.5-.3.8-.5.5-.4 1.1-.7 1.6-1.1.3-.2.6-.4.8-.6.5-.4 1-.7 1.5-1.1.3-.2.5-.4.8-.6l1.5-1.2.6-.6c.6-.5 1.2-1.1 1.8-1.7l.2-.2c.6-.6 1.2-1.3 1.8-2 .1-.2.3-.3.4-.5.4-.5.9-1 1.3-1.5.2-.2.4-.5.5-.7.4-.5.7-.9 1-1.4.2-.3.4-.5.5-.8.3-.5.6-1 .9-1.4.2-.2.3-.5.5-.8.3-.5.6-1.1.9-1.6l.3-.6c.8-1.5 1.6-3.1 2.2-4.7.1-.2.2-.4.3-.7.2-.6.5-1.2.7-1.7.1-.3.2-.6.3-.8.2-.5.4-1.1.5-1.6l.3-.9c.2-.6.3-1.1.5-1.7.1-.3.2-.6.2-.9.2-.6.3-1.3.5-1.9.1-.2.1-.4.2-.7.2-.9.4-1.7.5-2.6v-.3c.1-.8.3-1.5.4-2.3 0-.3.1-.6.1-.9.1-.6.1-1.2.2-1.8 0-.3.1-.7.1-1 .1-.6.1-1.1.1-1.7 0-.4.1-.7.1-1.1 0-.6.1-1.1.1-1.7v-3.7c.4-1.3.4-2.2.4-3.1z" fill="#574143"/><path class="st7" d="M67.7 23.3c-1.2 0-2.3.1-3.3.3-.9-.3-2-.4-3.2-.5-11-.3-23.8-8.7-23.8-8.7C37.8 22.2 50 34 61 34.2c1.2 0 2.3-.1 3.3-.3.9.3 2 .4 3.2.5 11 .3 23.8-10.8 24.5-18.5-.1 0-13.3 7.7-24.3 7.4z"/><path d="M90.2 16.9c-3 7.3-14.1 15.8-23.7 15.6-1.2 0-2.3-.2-3.2-.5-1 .2-2 .3-3.3.3-8.5-.2-17.7-7.3-21.6-14 3.1 7.3 13.2 15.8 22.6 16 1.2 0 2.3-.1 3.3-.3.9.3 2 .4 3.2.5 11 .3 23.8-10.8 24.5-18.5-.1-.1-.7.3-1.8.9z" fill="#ab8d8b"/><path d="M61.2 25.2c1.2 0 2.3.2 3.2.5 1-.2 2-.3 3.3-.3 9.7.3 21.1-5.7 23.7-7.2.3-.8.5-1.6.5-2.3 0 0-13.2 7.7-24.2 7.4-1.2 0-2.3.1-3.3.3-.9-.3-2-.4-3.2-.5-11-.3-23.8-8.7-23.8-8.7 0 .7.2 1.5.4 2.2 2.2 1.5 13.6 8.3 23.4 8.6z" fill="#efd7d6"/><path class="st0" d="M91.8 16c.1 0 .1-.1.1-.1l-.1.1zm-.1.1c0-.1 0-.1 0 0 0-.1 0-.1 0 0zm.1.8v.2c-.1 0 0-.1 0-.2zm-1.3-.2s.1 0 0 0c.1 0 0 0 0 0zm.3-.2s.1 0 .1-.1c0 .1 0 .1-.1.1zm.4-.2zm.2-.1c.1 0 .1-.1 0 0 .1-.1.1 0 0 0z"/><path class="st7" d="M88.7 19.6c1.2-.6 2.2-1.1 2.7-1.4.1-.4.2-.7.3-1.1v-.2c.1-.3.1-.7.2-1l-.1.1s-.1 0-.1.1h-.1s-.1 0-.1.1h-.1c-.1 0-.1.1-.2.1h-.1c-.1 0-.1.1-.2.1 0 0-.1 0-.1.1-.1 0-.2.1-.3.1 0 0-.1 0-.1.1-.1.1-.2.1-.3.2-.3.9-.8 1.8-1.4 2.7z"/></svg>