<?xml version="1.0" encoding="utf-8"?>
<svg version="1.1" id="Layer_1" xmlns="http://www.w3.org/2000/svg" xmlns:xlink="http://www.w3.org/1999/xlink" x="0px" y="0px"
	 viewBox="0 0 252 189" style="enable-background:new 0 0 252 189;" xml:space="preserve">
<g>
	<g>
		<path fill="#FFFFFF" d="M42.5,154h9.9v2.8H46v5h6.1v2.8H46v5.6h6.7v2.8H42.5V154z"/>
		<path fill="#FFFFFF" d="M55.1,161.2c0-0.5,0-0.9,0-1.3c0-0.4,0-0.7-0.1-0.9h3.3c0,0.4,0,0.7,0.1,1.1c0,0.4,0,0.7,0,1.1h0.1
			c0.1-0.3,0.3-0.5,0.5-0.8c0.2-0.3,0.5-0.5,0.7-0.8c0.3-0.2,0.6-0.4,1-0.6s0.8-0.2,1.3-0.2c0.6,0,1.1,0.1,1.5,0.2
			c0.4,0.2,0.7,0.4,1,0.6c0.3,0.2,0.5,0.5,0.6,0.7c0.2,0.3,0.3,0.5,0.4,0.7c0.2-0.2,0.4-0.5,0.6-0.7s0.5-0.5,0.8-0.7s0.6-0.4,1-0.5
			c0.4-0.1,0.8-0.2,1.4-0.2c0.8,0,1.4,0.1,1.9,0.4s0.9,0.6,1.2,1.1c0.3,0.5,0.5,1.1,0.7,1.7c0.1,0.7,0.2,1.4,0.2,2.3v8.6h-3.3V164
			c0-0.9-0.1-1.5-0.4-1.9c-0.3-0.4-0.7-0.6-1.4-0.6c-0.4,0-0.7,0.1-1,0.2c-0.3,0.2-0.5,0.4-0.7,0.6c-0.2,0.3-0.3,0.6-0.4,0.9
			c-0.1,0.4-0.1,0.7-0.1,1.1v8.4h-3.3V164c0-0.9-0.1-1.5-0.4-1.9c-0.3-0.4-0.7-0.6-1.4-0.6c-0.4,0-0.7,0.1-1,0.2s-0.5,0.4-0.7,0.6
			c-0.2,0.3-0.3,0.6-0.4,0.9c-0.1,0.4-0.1,0.7-0.1,1.1v8.4h-3.3V161.2z"/>
		<path fill="#FFFFFF" d="M75.5,165.9c0-1.4,0.2-2.6,0.6-3.5s0.9-1.6,1.4-2.2s1.3-0.9,2-1.1c0.7-0.2,1.4-0.3,2.1-0.3s1.4,0.1,2.1,0.3
			c0.7,0.2,1.4,0.6,2,1.1c0.6,0.5,1.1,1.3,1.4,2.2s0.6,2.1,0.6,3.5c0,1.5-0.2,2.7-0.6,3.6s-0.8,1.7-1.4,2.2c-0.6,0.5-1.2,0.9-2,1.1
			c-0.7,0.2-1.4,0.3-2.1,0.3s-1.4-0.1-2.1-0.3c-0.7-0.2-1.4-0.6-2-1.1s-1.1-1.3-1.4-2.2S75.5,167.3,75.5,165.9z M79,165.9
			c0,0.6,0,1.2,0.1,1.7c0.1,0.6,0.2,1.1,0.4,1.6s0.5,0.8,0.8,1.1c0.3,0.3,0.8,0.4,1.3,0.4s1-0.1,1.3-0.4c0.3-0.3,0.6-0.6,0.8-1.1
			c0.2-0.5,0.3-1,0.4-1.6s0.1-1.2,0.1-1.7s0-1.2-0.1-1.7s-0.2-1.1-0.4-1.5c-0.2-0.4-0.5-0.8-0.8-1.1c-0.3-0.3-0.8-0.4-1.3-0.4
			s-1,0.1-1.3,0.4c-0.3,0.3-0.6,0.6-0.8,1.1c-0.2,0.5-0.3,1-0.4,1.5C79,164.7,79,165.3,79,165.9z"/>
		<path fill="#FFFFFF" d="M90.2,161.2c0-0.4,0-0.8,0-1.2c0-0.4,0-0.7-0.1-1.1h3c0,0.4,0,0.8,0.1,1.3c0,0.4,0,0.9,0,1.3h0.1
			c0.1-0.3,0.3-0.6,0.4-0.9c0.2-0.3,0.4-0.6,0.7-0.9c0.3-0.3,0.6-0.5,1-0.7c0.4-0.2,0.9-0.3,1.4-0.3c0.1,0,0.2,0,0.3,0
			c0.1,0,0.2,0,0.3,0.1v3.1c-0.3-0.1-0.6-0.1-0.9-0.1c-0.3,0-0.7,0.1-1,0.2c-0.3,0.1-0.7,0.3-0.9,0.6s-0.5,0.6-0.7,1.1
			c-0.2,0.4-0.3,1-0.3,1.6v7.6h-3.3V161.2z"/>
		<path fill="#FFFFFF" d="M104.7,169.4L104.7,169.4l2.7-10.5h3.2l-4.3,14l-0.8,2.5c-0.1,0.5-0.3,0.9-0.6,1.3c-0.2,0.4-0.5,0.8-0.8,1.1
			c-0.3,0.3-0.7,0.5-1.1,0.7c-0.4,0.2-0.9,0.3-1.5,0.3c-0.5,0-0.9,0-1.2-0.1c-0.4-0.1-0.7-0.2-0.9-0.2l0.2-2.6
			c0.2,0.1,0.4,0.1,0.6,0.2s0.4,0.1,0.7,0.1c0.5,0,0.9-0.1,1.1-0.5c0.3-0.3,0.5-0.8,0.7-1.6l0.2-1.2l-4.6-14h3.5L104.7,169.4z"/>
		<path fill="#FFFFFF" d="M119,154h3.5v16.1h6.2v2.8H119V154z"/>
		<path fill="#FFFFFF" d="M130.6,153h3.5v3.3h-3.5V153z M130.7,158.9h3.3v13.9h-3.3V158.9z"/>
		<path fill="#FFFFFF" d="M140.4,152.6v8.3h0.1c0.1-0.3,0.3-0.5,0.5-0.8c0.2-0.3,0.4-0.5,0.7-0.7s0.6-0.4,1-0.5
			c0.4-0.1,0.8-0.2,1.3-0.2c1.5,0,2.7,0.6,3.5,1.9c0.8,1.3,1.3,3,1.3,5.3c0,1-0.1,1.9-0.3,2.8c-0.2,0.9-0.5,1.6-0.9,2.3
			c-0.4,0.6-0.9,1.2-1.5,1.6c-0.6,0.4-1.4,0.6-2.2,0.6c-0.5,0-1-0.1-1.4-0.2c-0.4-0.1-0.8-0.3-1-0.5c-0.3-0.2-0.5-0.5-0.7-0.8
			c-0.2-0.3-0.4-0.6-0.5-0.9h-0.1c0,0.5,0,0.9,0,1.3c0,0.4,0,0.7-0.1,0.9H137c0-0.3,0.1-0.6,0.1-1c0-0.4,0-0.9,0-1.4v-17.9H140.4z
			 M140.4,165.8c0,0.6,0,1.3,0.1,1.8s0.2,1.1,0.4,1.5c0.2,0.4,0.5,0.8,0.8,1c0.3,0.3,0.8,0.4,1.2,0.4c1,0,1.6-0.4,2-1.2
			s0.5-2,0.5-3.6c0-1.4-0.2-2.5-0.6-3.3c-0.4-0.8-1-1.3-2-1.3c-0.5,0-0.9,0.1-1.2,0.4c-0.3,0.2-0.6,0.6-0.8,1s-0.4,0.9-0.5,1.5
			C140.5,164.5,140.4,165.2,140.4,165.8z"/>
		<path fill="#FFFFFF" d="M151.3,161.2c0-0.4,0-0.8,0-1.2c0-0.4,0-0.7-0.1-1.1h3c0,0.4,0,0.8,0.1,1.3c0,0.4,0,0.9,0,1.3h0.1
			c0.1-0.3,0.3-0.6,0.4-0.9c0.2-0.3,0.4-0.6,0.7-0.9c0.3-0.3,0.6-0.5,1-0.7c0.4-0.2,0.9-0.3,1.4-0.3c0.1,0,0.2,0,0.3,0
			c0.1,0,0.2,0,0.3,0.1v3.1c-0.3-0.1-0.6-0.1-0.9-0.1c-0.3,0-0.7,0.1-1,0.2c-0.3,0.1-0.7,0.3-0.9,0.6s-0.5,0.6-0.7,1.1
			c-0.2,0.4-0.3,1-0.3,1.6v7.6h-3.3V161.2z"/>
		<path fill="#FFFFFF" d="M160.8,159.7c0.5-0.2,1.1-0.4,1.8-0.7c0.7-0.2,1.6-0.4,2.6-0.4c1.1,0,2,0.1,2.7,0.4c0.7,0.3,1.2,0.6,1.6,1.1
			c0.4,0.5,0.7,1.1,0.8,1.8c0.2,0.7,0.2,1.5,0.2,2.3v6.1c0,0.5,0,1,0.1,1.4c0,0.4,0.1,0.8,0.1,1.1h-3c-0.1-0.3-0.1-0.6-0.2-0.9
			c0-0.3,0-0.7,0-1h-0.1c-0.4,0.6-0.9,1.1-1.5,1.5c-0.6,0.4-1.4,0.6-2.4,0.6c-0.5,0-1.1-0.1-1.6-0.3s-0.9-0.4-1.3-0.8
			c-0.4-0.4-0.7-0.8-0.9-1.3s-0.4-1.1-0.4-1.7c0-0.9,0.2-1.7,0.6-2.3c0.4-0.6,0.9-1.1,1.5-1.5c0.6-0.4,1.4-0.6,2.3-0.7
			c0.9-0.1,1.9-0.2,2.9-0.2h0.7v-0.5c0-0.3,0-0.7-0.1-1c-0.1-0.3-0.2-0.6-0.4-0.9c-0.2-0.2-0.5-0.4-0.8-0.6
			c-0.3-0.1-0.7-0.2-1.2-0.2c-0.4,0-0.8,0-1.2,0.1c-0.4,0.1-0.7,0.2-1.1,0.3c-0.3,0.1-0.6,0.3-0.9,0.4c-0.3,0.2-0.5,0.3-0.6,0.4
			L160.8,159.7z M167.4,166h-0.3c-1.4,0-2.6,0.2-3.4,0.6c-0.8,0.4-1.2,1.1-1.2,2.1c0,0.6,0.2,1.1,0.6,1.5c0.4,0.4,0.9,0.6,1.6,0.6
			c1,0,1.7-0.4,2.1-1.1c0.4-0.7,0.6-1.7,0.6-2.9V166z"/>
		<path fill="#FFFFFF" d="M173.4,161.2c0-0.4,0-0.8,0-1.2c0-0.4,0-0.7-0.1-1.1h3c0,0.4,0,0.8,0.1,1.3c0,0.4,0,0.9,0,1.3h0.1
			c0.1-0.3,0.3-0.6,0.4-0.9c0.2-0.3,0.4-0.6,0.7-0.9c0.3-0.3,0.6-0.5,1-0.7c0.4-0.2,0.9-0.3,1.4-0.3c0.1,0,0.2,0,0.3,0
			c0.1,0,0.2,0,0.3,0.1v3.1c-0.3-0.1-0.6-0.1-0.9-0.1c-0.3,0-0.7,0.1-1,0.2c-0.3,0.1-0.7,0.3-0.9,0.6s-0.5,0.6-0.7,1.1
			c-0.2,0.4-0.3,1-0.3,1.6v7.6h-3.3V161.2z"/>
		<path fill="#FFFFFF" d="M182.7,153h3.5v3.3h-3.5V153z M182.8,158.9h3.3v13.9h-3.3V158.9z"/>
		<path fill="#FFFFFF" d="M199.4,172.1c-0.4,0.1-0.9,0.3-1.6,0.6c-0.7,0.2-1.6,0.3-2.6,0.3c-1.1,0-2.1-0.2-2.9-0.6
			c-0.8-0.4-1.5-0.9-2-1.5s-0.9-1.4-1.2-2.2s-0.4-1.7-0.4-2.7c0-1,0.1-2,0.4-2.9c0.3-0.9,0.6-1.7,1.1-2.3s1.1-1.2,1.8-1.6
			c0.7-0.4,1.5-0.6,2.4-0.6c0.8,0,1.5,0.1,2.1,0.4c0.7,0.2,1.3,0.7,1.8,1.2c0.5,0.6,0.9,1.3,1.2,2.3c0.3,0.9,0.4,2.1,0.4,3.6v0.6h-8
			c0,1.2,0.3,2.1,0.8,2.8c0.5,0.7,1.4,1,2.7,1c1,0,1.8-0.1,2.4-0.4s1-0.5,1.3-0.7L199.4,172.1z M196.8,164.7c0-2.5-0.8-3.7-2.3-3.7
			c-0.4,0-0.8,0.1-1.1,0.3c-0.3,0.2-0.6,0.5-0.8,0.8s-0.4,0.7-0.4,1.2s-0.1,0.9-0.1,1.3H196.8z"/>
		<path fill="#FFFFFF" d="M202,169.6c0.1,0.1,0.3,0.1,0.5,0.2c0.2,0.1,0.5,0.2,0.8,0.3c0.3,0.1,0.6,0.2,1,0.3c0.4,0.1,0.7,0.1,1.1,0.1
			c0.6,0,1.1-0.1,1.5-0.3c0.4-0.2,0.6-0.6,0.6-1.1c0-0.3-0.1-0.5-0.3-0.8c-0.2-0.3-0.6-0.6-1.2-0.9l-1.4-0.8
			c-0.4-0.2-0.7-0.4-1.1-0.7c-0.3-0.2-0.7-0.5-0.9-0.8s-0.5-0.6-0.7-1.1s-0.3-0.9-0.3-1.4c0-0.5,0.1-1,0.3-1.4
			c0.2-0.5,0.5-0.9,1-1.3c0.4-0.4,0.9-0.7,1.5-0.9c0.6-0.2,1.3-0.4,2-0.4c0.9,0,1.7,0.1,2.3,0.2c0.6,0.2,1,0.3,1.2,0.3l-0.2,2.6
			c-0.4-0.2-0.9-0.3-1.3-0.4c-0.5-0.1-1-0.2-1.6-0.2c-0.7,0-1.2,0.1-1.5,0.4s-0.4,0.6-0.4,1c0,0.4,0.1,0.7,0.4,0.9
			c0.3,0.3,0.7,0.5,1.1,0.8l1.6,1.1c0.4,0.3,0.8,0.5,1.1,0.8c0.3,0.3,0.6,0.5,0.8,0.8c0.2,0.3,0.4,0.6,0.5,0.9
			c0.1,0.3,0.2,0.7,0.2,1.1c0,0.6-0.1,1.2-0.4,1.7c-0.3,0.5-0.6,0.9-1.1,1.3c-0.5,0.4-1,0.6-1.6,0.8c-0.6,0.2-1.3,0.3-2.1,0.3
			c-0.9,0-1.6-0.1-2.3-0.2s-1.2-0.3-1.6-0.4L202,169.6z"/>
	</g>
	<polygon fill="#FFFFFF" points="9.4,137.4 242.6,137.4 242.6,138.6 9.4,138.6 9.4,137.4 	"/>
	<g>
		<g>
			<g>
				<g>
					<g>
						<path fill="#FFFFFF" d="M37.5,67.8c-28.4-13.1-25-42.4-24.9-56.1l50.2,0C62.7,25.4,65.9,54.7,37.5,67.8z M12.5,9.4l-2.2,2.3
							c0,1.6-0.1,3.7-0.1,4.7c-0.2,16.1,0.9,41.1,27.1,53.2c13.9-6.4,24.3-17.4,27.1-34.6c1.6-9.9,0.6-19.3,0.7-25.6L12.5,9.4z"/>
					</g>
					<g>
						<path fill="#FFFFFF" d="M26.7,45.4c-2,2.2-4,4.3-4.7,5c-0.2,0.2-0.2,0.3-0.1,0.4c0.1,0.2,0.3,0.3,0.4,0.4c0.1,0,0.2,0.1,0.4-0.1
							c0.1-0.1,2.3-2.2,4.9-4.7c0,0-0.3-0.1-0.5-0.3C27,45.7,26.7,45.4,26.7,45.4z"/>
						<g>
							<path fill="#FFFFFF" d="M28.1,44.8c0.5,0.5,1.3,1,1.3,1L29,46.2c-0.2,0.2-0.8-0.1-1.4-0.7c-0.6-0.6-1-1.2-0.8-1.4l0.5-0.5
								C27.2,43.8,27.6,44.3,28.1,44.8z"/>
						</g>
						<g>
							<g>
								<g>
									<path fill="#FFFFFF" d="M51,50.4c0.4-0.4,0.4-0.8,0.4-0.8l0.5,0.2c0.1,0.1,0,0.7-0.4,1.1c-0.4,0.4-1,0.6-1.1,0.4l-0.2-0.5
										C50.1,50.8,50.6,50.8,51,50.4z"/>
								</g>
							</g>
							<g>
								<g>
									<path fill="#FFFFFF" d="M50.3,49.6c0.3-0.2,0.4-0.6,0.4-0.6l0.3,0.2c0.1,0.1,0,0.4-0.3,0.7c-0.3,0.3-0.7,0.4-0.8,0.3L49.7,50
										C49.7,50,50.1,49.9,50.3,49.6z"/>
								</g>
							</g>
						</g>
					</g>
					<g>
						<path fill="#FFFFFF" d="M51.7,26.7l-0.5,0.5c-0.7,0.3-2.4-1-3.7-2.1c-0.9-0.8-2.6-2.7-2.1-3.5l0.2-0.2c-0.2-0.1-0.3-0.2-0.4-0.2
							C45.1,21,44.9,21,44.6,21c-0.2,0-0.4,0.1-0.4,0.3c0,0.3,0.2,0.8,0.4,1.4c0.3,0.5,1.4,2.1,3.6,3.9c1,0.8,2.1,1.3,3,1.6
							c0.1,0.1,0.7,0.2,0.9-0.1c0.2-0.2,0-0.6-0.2-1C51.9,26.9,51.8,26.8,51.7,26.7z"/>
					</g>
					<path fill="#FFFFFF" d="M50.7,21.6"/>
					<path fill="#FFFFFF" d="M49.6,21.2"/>
					<path fill="#FFFFFF" d="M29,18.5c0,0.2,0,0.3,0,0.5c0,0.5,0.5,4.9,3,8.1c2.2,2.7,8.8,10.6,9.9,11.9c1,1.2,7.5,8.8,8.3,9.7
						c0,0,0.1,0.1,0.1,0.1c0,0-0.1,0.2-0.3,0.4c-0.2,0.2-0.4,0.2-0.4,0.2c0,0-0.2-0.2-0.2-0.2C49.1,49,37.9,37.7,36.8,36.7
						c-1.1-1.1-6.9-6.7-9.3-8.2c-2.1-1.3-3-2.1-5.3-2.3c0,0-1.6-0.1-1.7-0.1c0,0,0-0.1,0.1-0.1c1-0.4,3.2-1.7,4.9-3.3
						c2.4-2.3,3.2-3.9,3.3-4.2C28.8,18.5,29,18.5,29,18.5z M30.6,28c-2.3-2.3-3.2-2.9-4.3-3.3c-0.5-0.2-1.1-0.4-1.2-0.4
						c-0.5,0.2-1.1,0.5-1.6,0.9c-0.3,0.3-0.3,0.4-0.1,0.5c0.2,0.1,1.4,0.3,2.4,0.9c1.9,1,5.4,3.5,13.2,11.5
						c3.9,4.1,10.1,10.4,10.1,10.4l0.2-0.1c0,0-9-10.1-16-17.6C32.2,29.7,31.3,28.8,30.6,28z"/>
					<path fill="#FFFFFF" d="M51.5,26.6"/>
					<path fill="#FFFFFF" d="M23.6,23.2c-1,0.9-2.3,1.7-3.4,2.1c-0.7,0.3-1.7,0-1-1.4c0.2-0.4,0.5-0.9,1-1.5c1.4-1.8,3.8-4,6.1-5.3
						c0.7-0.4,1.4-0.6,1.7-0.6c0.6,0,0.6,0.5,0.5,1C28.2,18.5,26.5,20.8,23.6,23.2z M24.3,21.9c0.3-0.2,1.2-1.2,2-2.1
						c0.8-1,1.3-1.8,1.3-1.8s0.1-0.3,0.1-0.5c0-0.1-0.2-0.2-0.2-0.3c-0.1-0.1-2.1,0.8-3,1.7c-0.1,0.1-0.3,0.5-0.4,0.8
						c-0.1,0.3,0.6,1,0.2,2.1C24.2,21.9,24.3,22,24.3,21.9z"/>
					<path fill="#FFFFFF" d="M28.9,18.8"/>
					<g>
						<path fill="#FFFFFF" d="M36.6,37.3c-0.5,0.4-7.8,7.5-7.8,7.5c0.1,0.1,0.4,0.3,0.4,0.3s6.7-6.4,7.2-6.9c0.1-0.1,0.4-0.4,0.5-0.5
							L36.6,37.3z"/>
						<path fill="#FFFFFF" d="M50.4,28.7c0.1,0,0.2,0,0.3,0c0.1,0,0.3,0,0.3-0.1c0.1,0,0.1-0.1,0-0.1c-0.3,0-1-0.2-1.7-0.5
							c-0.4,0.1-1.1,0.3-2,0.7c-1.1,0.5-3.4,1.9-8.1,6.2l0.4,0.4c1.6-1.5,3.8-3.4,5-4.2c2.1-1.4,3.6-2,4.7-2.2
							C49.6,28.8,50,28.7,50.4,28.7z"/>
					</g>
					<g>
						<path fill="#FFFFFF" d="M45.8,25.3c-1.3-1.4-1.7-2.3-1.9-3c0,0,0-0.1,0-0.1c0,0-0.1,0-0.1,0c0,0,0,0.1,0,0.1
							c-0.1,1.4,0,2-0.6,3.4c-0.5,1.2-1.4,2.7-2.5,4.1c-0.7,0.8-1.9,2.1-2.9,3.3l0.8,0.9c0.1-0.1,0.3-0.3,0.6-0.6
							c3.6-3.8,6.7-6.2,7.9-7.1C46.5,26,46.1,25.6,45.8,25.3z"/>
						<path fill="#FFFFFF" d="M35.1,36c-1.5,1.7-3,3.4-3.5,3.9c-0.4,0.4-3.7,4-3.7,4s0.1,0.1,0.2,0.3c0.1,0.1,0.3,0.3,0.3,0.3
							s7-7.2,7.5-7.7L35.1,36z"/>
					</g>
					<path fill="#FFFFFF" d="M47.1,20.5c0-0.1,0-0.1,0-0.2c-0.4-0.1-0.6-0.1-0.8,0.1c-0.5,0.5,0.6,2.2,2.3,3.8c1.7,1.6,3.5,2.5,3.9,2
						c0.2-0.2,0.1-0.6-0.1-1.1C49.9,25.4,47.1,22.1,47.1,20.5z"/>
					<path fill="#FFFFFF" d="M54.7,21.2c-0.2,0.3-0.6,0.9-0.9,1.1c0.3-0.2,0.4-0.8,0.1-2.3c-0.2-1.1-0.3-1.4-0.5-1.8
						c-0.1-0.2-0.2-0.1-0.3,0C53,18.4,52.7,19,52.7,19c0,0.1,0,0-0.5-1.5c-0.3-1-0.4-1.6-0.4-2c0-0.2,0-0.4,0-0.5
						c0-0.1-0.1-0.1-0.4,0c-0.2,0.1-1.5,1-2,2.3c-0.3,0.8-0.3,1.4-0.4,1c-0.1-0.8-0.1-0.8-0.2-0.7c-0.4,0.1-1.9,0.8-1.9,2.9
						c0,1.7,3.3,5.4,5.9,4.6c0,0,2-0.4,2.1-2.2C55,21.1,54.7,21.2,54.7,21.2z M54.1,23.4c-0.1,0.2-0.5,0.7-1,0.9
						c-0.6,0.3-1.5,0.3-1.9,0.2c-2-0.6-3.1-2.6-3.1-2.6c-1.5-2.5,0.5-3.6,0.7-3.6c0,0-0.2,0.8-0.1,1.4c0.1,0.5,0.4,0.9,0.5,1.2
						c0.2,0.5-0.1,0.9-0.2,1.1c-0.1,0.1,0.1,0,0.2,0c0,0,0.1-0.1,0.1-0.1c0.3-0.2,0.5-0.5,0.5-0.9c-0.2-0.8-0.7-1.3-0.1-2.8
						c0.4-1,1.3-1.9,1.4-2c0.1-0.1,0.2-0.2,0.2-0.1c0,0.1,0.2,0.8,0.3,1.3c0.1,0.5,0.6,1.4,0.5,2.7c-0.1,1.3-2.3,2.7-2.5,2.8
						c-0.1,0-0.2,0.1-0.3,0.2c-0.1,0.1,0,0.1,0.1,0.1c0.1,0,1-0.2,1.8-0.7c0.6-0.4,1.2-1.1,1.4-1.4c0.4-0.7,0.6-1.7,0.6-1.8
						c0.1-0.2,0.1-0.1,0.1-0.1c0,0.1,0.2,0.7,0.2,0.9c0,0.2,0.1,0.6,0.1,1.1c0,1-0.3,1.4-0.9,1.9c-0.3,0.3-0.7,0.3-1.1,0.4l-0.1,0
						c-0.1,0-0.1,0,0,0.1c0,0,0.1,0,0.1,0.1c0.3,0.1,1,0.1,1.5-0.1c0.2-0.1,0.5-0.3,0.8-0.7c0.1-0.1,0.3-0.4,0.3-0.3
						C54.2,22.6,54.3,23.1,54.1,23.4z"/>
				</g>
				<g>
					<g>
						<path fill="#FFFFFF" d="M172.5,12.4c8.7,0,14.1,7.9,14.1,15.9c0,8.2-5.2,13.4-11.7,13.4c-8.8,0-14.2-8-14.2-16.2
							C160.8,18.6,165,12.4,172.5,12.4z M173.1,43.1c9.9,0,16.8-6.5,16.8-16.5c0-9.2-7-15.7-16-15.7c-9.1,0-16.3,6.7-16.3,16
							C157.6,36.3,163.4,43.1,173.1,43.1z"/>
						<path fill="#FFFFFF" d="M198.8,14.7c0-1.7,0.9-1.6,2.5-1.6c4.2,0,8.2,1.8,8.2,7c0,5.3-4.1,6.1-6,6.1c-2,0-4.7,0.2-4.7-0.6V14.7z
							 M207.3,26.6c3-1.2,5.5-4.1,5.5-7.5c0-8.3-9.6-7.5-10.2-7.5c-2.3,0-4.7,0.2-7.2,0.2c-2.2,0-2-0.2-2.8-0.2
							c-0.5,0-0.9,0.3-0.9,0.5c0,1.5,3.7-0.3,3.7,3.8V38c0,3.3-3.1,2.7-3.1,3.8c0,0.3,0.2,0.5,0.4,0.5c1.6,0,3.3-0.2,4.9-0.2
							c3.6,0,4.6,0.2,5,0.2c0.3,0,0.7,0.1,0.7-0.3c0-1.5-4.5-0.1-4.5-3.9v-9.1c0-0.4-0.3-1.2,1.1-1.2c4.8,0,4.2-0.1,5.8,2.3l4.8,7.6
							c1.6,2.5,3.3,4.7,6.5,4.7c0.4,0,3.8,0,3.8-0.5c0-1-3.1,0.6-6.2-4.2L207.3,26.6z"/>
						<path fill="#FFFFFF" d="M219.9,14.4c-1.1-1.9-3.2-1.3-3.2-2.1c0-0.3,0.3-0.6,0.6-0.6c1.2,0,2,0.2,4.9,0.2c1.4,0,2.6-0.2,3-0.2
							c0.3,0,0.8,0,0.8,0.4c0,0.7-2,0.8-2,2c0,0.7,0.5,1.4,0.8,1.8l5.2,8.3c0.3,0.5,0.6,0.8,0.9,0.8c0.2,0,0.5-0.3,0.8-0.9l4.4-7.2
							c0.3-0.5,0.9-1.2,0.9-2.4c0-2.1-3.2-1.2-3.2-2.2c0-0.6,0.4-0.6,0.9-0.6c1,0,2.1,0.2,3.1,0.2c1.2,0,2.5-0.2,3.7-0.2
							c0.3,0,0.5,0.3,0.5,0.5c0,0.5-0.7,0.6-1,0.8c-1.2,0.7-1.7,1.9-2.4,3l-6,9.4c-0.7,1.1-1,1.3-1,1.9v10.6c0,3.8,3.5,2.5,3.5,3.9
							c0,0.4-0.4,0.4-1,0.4c-0.6,0-3.2-0.2-4.7-0.2c-1.9,0-3.5,0.2-3.9,0.2c-0.4,0-0.6,0-0.6-0.5c0-1.2,3.3-0.1,3.3-3.2V28.1
							c0-0.8-0.6-1.7-1-2.2L219.9,14.4z"/>
						<path fill="#FFFFFF" d="M152.6,38.2c0.2,3.6,3.4,2,3.4,3.5c0,0.4-0.6,0.4-1,0.4c-0.8,0-2.3-0.2-4-0.2c-1.3,0-2.7,0.2-3.7,0.2
							c-0.4,0-0.5-0.2-0.5-0.4c0-1.3,2.7-0.3,2.7-3.5l-1.2-16.7c0-1.1-0.2-1.7-0.5-1.7c-0.3,0-0.7,0.4-1.1,1.3l-8.9,18.2
							c-0.2,0.4-0.9,2.2-1.3,2.2c-0.4,0-0.7-0.9-0.9-1.3L126.3,21c-0.1-0.3-0.4-0.5-0.5-0.5c-0.1,0-0.3,0.2-0.3,0.6l-1.3,15.1
							c-0.2,5.7,3.9,3.8,3.9,5.4c0,0.4-0.5,0.5-1.1,0.5c-0.6,0-2.5-0.2-3.8-0.2c-2.2,0-3,0.2-3.8,0.2c-0.3,0-0.4-0.2-0.4-0.5
							c0-1.5,2.8,0.3,3.1-4.2c0.5-7,1-11.6,1-16.2c0-10.1-3.3-7.7-3.3-9.2c0-0.4,0.3-0.5,0.7-0.5c0.8,0,1.5,0.2,2.4,0.2
							c0.8,0,1.5-0.2,2.3-0.2c0.6,0,0.7,0.7,0.9,1.2l10.3,21.9c0.5,0.9,0.6,1.3,1,1.3c0.2,0,0.6-0.9,1.3-2.3L149,13.1
							c0.3-0.5,0.6-1.5,1.1-1.5c0.4,0,1.8,0.2,2,0.2c1,0,1.4-0.2,2.1-0.2c0.3,0,0.4,0.3,0.4,0.5c0,1.4-3.5-0.5-3.3,4.7L152.6,38.2z"
							/>
						<path fill="#FFFFFF" d="M100.2,24.2c0,1.5-0.1,1.5,1.6,1.5h4.6c4.5,0,3.3-3.5,4.3-3.5c0.3,0,0.5,0.5,0.5,0.8c0,1.5-0.1,3-0.1,4.3
							c0,1.1,0.1,2.2,0.1,3.4c0,0.4-0.2,0.6-0.5,0.6c-1.3,0,0.1-3.8-3.5-3.8H101c-0.9,0-0.8,0.7-0.8,1.4v7.9c0,2.6-0.3,3.6,3.3,3.6
							c9.9,0,11.4-4.5,11.9-4.5c0.3,0,0.3,0.4,0.3,0.5c0,1.6-1.1,3.1-2.1,4.2c-1.4,1.6-2.3,1.5-4.2,1.5c-3.3,0-6.5-0.3-9.8-0.2
							c-1.7,0-3.5,0.2-5.2,0.2c-0.4,0-0.6-0.1-0.6-0.4c0.1-0.5,0.5-0.4,1.9-1.1c1.1-0.5,1.2-1.7,1.2-3.8V17.2c0-1.9,0-4-2.3-4.4
							c-0.3-0.1-1.3-0.2-1.3-0.7c0-0.3,0.3-0.5,1.5-0.5c8.1,0,10.4,0.2,12.2,0.2c0.9,0,4.8-0.2,6.1-0.2c0.3,0,0.4,0.4,0.4,0.9
							c0,4.8-0.6,5.1-0.9,5.1c-1,0-0.3-2.1-1-3.1c-1.1-1.5-5.6-1.2-7.3-1.2c-4.1,0-4-0.2-4,2.7V24.2z"/>
					</g>
				</g>
			</g>
		</g>
		<g>
			<path fill="#FFFFFF" d="M99.3,64.7c0,1.2-0.2,2,1.3,2c5,0,4.7-2.6,5.5-2.6c0.1,0,0.2,0.1,0.2,0.4c0,1.6-1.2,3.2-2.8,3.2
				c-3,0-4.1-0.1-5.1-0.1c-0.6,0-1.5,0.1-2.6,0.1c-0.3,0-0.4-0.1-0.4-0.2c0-0.9,1.5,0.2,1.5-2.3v-9.5c0-1.7-2.3-1.2-2.3-1.9
				c0-0.2,0.2-0.3,0.6-0.3c0.8,0,2,0.1,2.7,0.1c1.7,0,1.9-0.1,2.3-0.1c0.4,0,0.5,0,0.5,0.3c0,0.8-1.4,0-1.4,1.5V64.7z"/>
			<path fill="#FFFFFF" d="M112.7,65.2c0,2.5,2.2,1.5,2.2,2.2c0,0.2-0.2,0.3-0.6,0.3c-0.7,0-1.5-0.1-3-0.1c-0.9,0-1.7,0.1-2.2,0.1
				c-0.2,0-0.2-0.1-0.2-0.2c0-0.7,1.4-0.2,1.4-2.1v-9.6c0-1.8-2.3-1.3-2.3-2c0-0.3,0.5-0.3,0.7-0.3c0.8,0,1.6,0.1,2.3,0.1
				c0.7,0,1.4-0.1,2.6-0.1c0.6,0,0.7,0,0.7,0.3c0,0.7-1.5,0-1.5,1.9V65.2z"/>
			<path fill="#FFFFFF" d="M119.9,56.4c0-2.8-2.1-1.7-2.1-2.6c0-0.3,0.2-0.3,0.3-0.3c0.1,0,0.3,0.1,1.2,0.1c1.7,0,3.4-0.1,5.1-0.1
				c4.9,0,4.9,3,4.9,3.4c0,1.3-0.8,2.4-2.2,2.8v0c2.4,0.6,3.2,1.7,3.2,3.5c0,2.6-1.8,4.4-5.1,4.4c-3,0-4-0.1-5-0.1
				c-0.5,0-1,0.1-1.4,0.1c-0.5,0-0.7,0-0.7-0.3c0-0.7,1.7-0.1,1.7-2.1V56.4z M122.4,58.5c0,1,0.2,1.1,1.4,1.1h1.2
				c1.5,0,2.1-0.8,2.1-2.2c0-1.8-1.5-3.1-3.3-3.1c-1.4,0-1.4,0.8-1.4,1.9V58.5z M122.4,64.4c0,1.9,0.5,2.5,2.5,2.5c2,0,3-1.3,3-3.2
				c0-1.2-0.6-3-4.2-3c-1.2,0-1.2,0.5-1.2,1.5V64.4z"/>
			<path fill="#FFFFFF" d="M134.9,56c0-2.2-2.2-1.5-2.2-2.2c0-0.2,0.2-0.3,0.4-0.3c0.9,0,1.1,0.1,2.3,0.1c1.3,0,2.7-0.1,4-0.1
				c4.4,0,4.8,2.8,4.8,3.7c0,1.3-0.6,2-1.2,2.5c-0.6,0.5-1.2,0.6-1.2,0.8c0,0.1,1.6,3,3,5.6c0.2,0.3,0.6,0.3,0.7,0.3
				c0.2,0,0.4-0.1,0.6-0.1c0.2,0,0.3,0.1,0.3,0.3c0,0.6-1.3,1.1-2.1,1.1c-1.6,0-2.2-1.3-2.8-2.4L140,62c-0.5-0.9-0.7-1.1-1.7-1.1
				c-1.1,0-0.9,0.1-0.9,0.8v3.5c0,2.1,2,1.3,2,2c0,0.2-0.2,0.3-0.6,0.3c-0.3,0-0.9-0.1-1.7-0.1c-1.1,0-2.1,0.1-3.1,0.1
				c-0.2,0-0.6,0.1-0.6-0.3c0-0.6,1.6,0,1.6-2.5V56z M137.4,59.6c0,0.5,0.7,0.5,1.3,0.5c3,0,3.2-1.1,3.2-2.3c0-2-1.1-3.4-3.1-3.4
				c-0.7,0-1.4,0-1.4,1.2V59.6z"/>
			<path fill="#FFFFFF" d="M152.5,62.7c-0.3,0-0.8,0.1-1.2,1.4c-0.1,0.4-0.4,1.1-0.4,1.6c0,1.4,2.2,1.1,2.2,1.7c0,0.4-0.6,0.3-1,0.3
				c-0.6,0-1.2-0.1-1.9-0.1c-0.6,0-1.2,0.1-1.8,0.1c-0.3,0-0.6,0-0.6-0.2c0-0.5,1-0.3,1.5-1.5l5.4-12.1c0.1-0.3,0.2-0.7,0.5-0.7
				c0.2,0,0.2,0,0.5,0.6l5.4,12.3c0.6,1.4,1.7,0.6,1.7,1.3c0,0.3-0.2,0.3-0.7,0.3c-0.7,0-1.3-0.1-2.6-0.1c-0.9,0-1.6,0.1-2.2,0.1
				c-0.4,0-0.6,0-0.6-0.2c0-0.6,1.4-0.4,1.4-1.6c0-0.4-0.1-0.8-0.4-1.3c-0.7-1.6-0.8-1.8-1.3-1.8H152.5z M155.8,61.6
				c0.4,0,0.6,0,0.6-0.2c0-0.3-0.1-0.5-0.2-0.7l-1.6-3.6c-0.1-0.2-0.1-0.2-0.2-0.2c0,0-0.1,0-0.2,0.2l-1.5,3.5
				c-0.1,0.2-0.2,0.5-0.2,0.7c0,0.2,0.3,0.2,0.6,0.2H155.8z"/>
			<path fill="#FFFFFF" d="M166.3,56c0-2.2-2.2-1.5-2.2-2.2c0-0.2,0.2-0.3,0.4-0.3c0.9,0,1.1,0.1,2.3,0.1c1.3,0,2.7-0.1,4-0.1
				c4.4,0,4.8,2.8,4.8,3.7c0,1.3-0.6,2-1.2,2.5c-0.6,0.5-1.2,0.6-1.2,0.8c0,0.1,1.7,3,3.1,5.6c0.2,0.3,0.6,0.3,0.7,0.3
				c0.2,0,0.4-0.1,0.6-0.1c0.2,0,0.3,0.1,0.3,0.3c0,0.6-1.3,1.1-2.1,1.1c-1.6,0-2.2-1.3-2.8-2.4l-1.7-3.2c-0.5-0.9-0.8-1.1-1.8-1.1
				c-1.1,0-0.9,0.1-0.9,0.8v3.5c0,2.1,2,1.3,2,2c0,0.2-0.2,0.3-0.6,0.3c-0.3,0-0.9-0.1-1.7-0.1c-1.1,0-2.1,0.1-3.1,0.1
				c-0.2,0-0.6,0.1-0.6-0.3c0-0.6,1.6,0,1.6-2.5V56z M168.7,59.6c0,0.5,0.7,0.5,1.3,0.5c3,0,3.2-1.1,3.2-2.3c0-2-1.1-3.4-3.1-3.4
				c-0.7,0-1.4,0-1.4,1.2V59.6z"/>
			<path fill="#FFFFFF" d="M184.7,65.2c0,2.5,2.2,1.5,2.2,2.2c0,0.2-0.2,0.3-0.6,0.3c-0.7,0-1.5-0.1-3-0.1c-0.9,0-1.7,0.1-2.2,0.1
				c-0.2,0-0.2-0.1-0.2-0.2c0-0.7,1.4-0.2,1.4-2.1v-9.6c0-1.8-2.3-1.3-2.3-2c0-0.3,0.5-0.3,0.7-0.3c0.8,0,1.6,0.1,2.3,0.1
				c0.7,0,1.4-0.1,2.6-0.1c0.6,0,0.7,0,0.7,0.3c0,0.7-1.5,0-1.5,1.9V65.2z"/>
			<path fill="#FFFFFF" d="M194.3,58.6c0,0.9,0,1,0.9,1h1.3c1.7,0,1.8-1.8,2.2-1.8c0.1,0,0.4,0,0.4,0.5l0.1,3.6c0,0.3,0.1,1-0.3,1
				c-0.6,0-0.1-2.1-2.2-2.1h-1.5c-0.9,0-0.8,0.2-0.8,1.4v2.6c0,1.2-0.1,2,1.4,2c5,0,4.7-2.6,5.5-2.6c0.1,0,0.2,0.1,0.2,0.4
				c0,1.6-1.2,3.2-2.8,3.2c-3,0-4.2-0.1-5.3-0.1c-0.6,0-1.5,0.1-2.6,0.1c-0.3,0-0.4-0.1-0.4-0.2c0-0.9,1.5,0.2,1.5-2.3v-9.4
				c0-1.8-2.3-1.2-2.3-2c0-0.2,0.2-0.3,0.4-0.3c0.8,0,2.3,0.1,5.3,0.1c1.4,0,2.8-0.1,4.6-0.1c0.3,0,0.4,0.2,0.4,0.4l0.1,2
				c0,0.3,0.1,0.9-0.3,0.9c-0.9,0,0.6-2.3-3.2-2.3c-2.4,0-2.5,0-2.5,1.4V58.6z"/>
			<path fill="#FFFFFF" d="M204.7,63.5c-0.1-0.3-0.3-0.9,0.2-0.9c0.3,0,0.4,0.2,0.4,0.4c0.6,1.9,1.9,3.7,4.1,3.7c1.6,0,2.8-1,2.8-2.6
				c0-1.7-1.3-2-4.5-3.4c-1.7-0.8-2.9-1.5-2.9-3.6c0-2.3,1.6-4,3.9-4c1.6,0,2.5,0.8,3.1,0.8c0.3,0,0.8-0.3,1-0.3
				c0.3,0,0.2,0.3,0.3,0.8l0.2,2.7c0,0.4,0,0.7-0.5,0.7c-0.5,0-0.8-3.7-4.2-3.7c-1.3,0-2.2,0.8-2.2,2.1c0,1.3,1.1,1.6,3.8,2.8
				c2.1,0.9,3.5,1.8,3.5,4.3c0,2.6-1.8,4.4-4.5,4.4c-1.2,0-2.2-0.5-3.4-0.7c-0.5-0.1-0.5-0.3-0.6-0.8L204.7,63.5z"/>
			<path fill="#FFFFFF" d="M225.6,58.3c0-0.4-0.4-0.7-0.4-1.9c0-1.9,1.5-3.1,3.4-3.1c1.3,0,2.6,0.7,2.9,0.7c0.3,0,0.4-0.3,0.7-0.3
				c0.2,0,0.2,0.1,0.2,0.4c0,1,0.2,2.1,0.3,3.1c0,0.2-0.1,0.4-0.3,0.4c-0.2,0-0.3-0.2-0.4-0.5c-0.5-1.6-1.6-3-3.3-3
				c-0.9,0-1.4,0.6-1.4,1.5c0,2.9,6.6,8.5,7.1,8.5c0.1,0,0.8-0.8,0.8-2c0-2.5-2.3-1.5-2.3-2.3c0-0.2,0.1-0.3,0.4-0.3
				c0.3,0,0.8,0.1,2.1,0.1c1,0,1.3-0.1,1.7-0.1c0.2,0,0.3,0.1,0.3,0.3c0,0.5-0.7,0.2-0.8,0.9c-0.4,2.9-1.2,3.8-1.2,3.9
				c0,0.8,2.2,1.9,2.7,1.9c0.8,0,0.7-0.1,1-0.1c0.2,0,0.3,0,0.3,0.2c0,0.3-1,1.3-2.5,1.3c-1.2,0-2.6-1-3.3-1.6
				c-1.2,1.1-3.3,1.6-4.9,1.6c-4.5,0-6-3.1-6-4.9C222.6,59.4,225.6,58.6,225.6,58.3z M232.7,65.9c0-0.5-4.6-3.2-6.3-6.2
				c-0.2-0.3-0.4-0.6-0.5-0.6c-0.4,0-1.5,0.6-1.5,2.1c0,2.2,2.8,5.5,5.9,5.5C231.1,66.6,232.7,66.2,232.7,65.9z"/>
		</g>
		<g>
			<path fill="#FFFFFF" d="M99,87.8c0,2.2,2,1.4,2,2c0,0.2-0.2,0.3-0.6,0.3c-0.7,0-1.3-0.1-2.7-0.1c-0.8,0-1.5,0.1-2,0.1
				c-0.2,0-0.2-0.1-0.2-0.2c0-0.6,1.3-0.2,1.3-1.9v-8.6c0-1.6-2-1.1-2-1.8c0-0.3,0.4-0.3,0.6-0.3c0.7,0,1.4,0.1,2,0.1
				c0.6,0,1.3-0.1,2.3-0.1c0.5,0,0.6,0,0.6,0.3c0,0.6-1.3,0-1.3,1.7V87.8z"/>
			<path fill="#FFFFFF" d="M104.9,80.8c0-3.5-2-2.3-2-3.2c0-0.2,0.1-0.3,0.3-0.3c0.3,0,0.7,0.1,1,0.1c0.5,0,0.9-0.1,1.9-0.1
				c0.6,0,0.4,0.1,0.7,0.5l7.2,7.9c0.2,0.3,0.5,0.5,0.6,0.5c0.1,0,0.1-0.2,0.1-0.7v-6c0-1.6-2.2-1.3-2.2-1.9c0-0.1,0.1-0.3,0.3-0.3
				c0.3,0,0.8,0.1,2.1,0.1c1.1,0,1.8-0.1,1.9-0.1c0.3,0,0.3,0.2,0.3,0.2c0,0.5-1.5,0.1-1.5,2v10.1c0,0.4,0,0.5-0.2,0.5
				c-0.3,0-0.3-0.1-0.5-0.3l-8.7-9.4c-0.1-0.1-0.2-0.2-0.3-0.2c-0.1,0-0.1,0.1-0.1,0.3v6.1c0,3.5,2.3,2.2,2.3,3.1
				c0,0.3-0.4,0.2-0.7,0.2c-0.9,0-1.5-0.1-2.1-0.1c-0.6,0-1.1,0.1-1.5,0.1c-0.2,0-0.6,0.1-0.6-0.2c0-0.7,1.7-0.4,1.7-2.2V80.8z"/>
			<path fill="#FFFFFF" d="M123.2,82c0,0.8,0,0.9,0.8,0.9h1.1c1.6,0,1.6-1.7,2-1.7c0.1,0,0.3,0,0.3,0.4l0.1,3.2c0,0.2,0.1,0.9-0.3,0.9
				c-0.6,0-0.1-1.9-1.9-1.9H124c-0.8,0-0.8,0.2-0.8,1.3v2.7c0,2,2,1.5,2,2c0,0.4-0.4,0.3-0.8,0.3c-0.7,0-1.4-0.1-2.1-0.1
				c-0.6,0-1.3,0.1-2.3,0.1c-0.2,0-0.3-0.1-0.3-0.2c0-0.8,1.4,0.1,1.4-2.1v-8.4c0-1.6-2-1-2-1.8c0-0.2,0.1-0.3,0.4-0.3
				c0.7,0,2,0.1,4.8,0.1c1.3,0,2.5-0.1,4.1-0.1c0.2,0,0.4,0.2,0.4,0.3l0.1,1.8c0,0.2,0.1,0.8-0.3,0.8c-0.8,0,0.6-2.1-2.9-2.1
				c-2.2,0-2.3,0-2.3,1.3V82z"/>
			<path fill="#FFFFFF" d="M137.3,77.2c3.5,0,6.2,2.3,6.2,6.1c0,2.5-1.1,6.9-6.8,6.9c-3.6,0-6-2.4-6-6.1
				C130.6,80.2,133,77.2,137.3,77.2z M137.2,89.4c3.1-0.1,4.1-2.5,4.1-5.5c0-4-2.2-6.1-4.5-6c-3,0.1-3.9,2.5-3.9,5.1
				C132.8,85.7,133.9,89.5,137.2,89.4z"/>
			<path fill="#FFFFFF" d="M147.1,79.6c0-2-2-1.3-2-2c0-0.2,0.2-0.3,0.4-0.3c0.8,0,1,0.1,2.1,0.1c1.2,0,2.4-0.1,3.6-0.1
				c3.9,0,4.3,2.5,4.3,3.4c0,1.2-0.5,1.8-1,2.3c-0.5,0.4-1,0.6-1,0.8c0,0.1,1.5,2.7,2.8,5c0.2,0.3,0.5,0.3,0.6,0.3
				c0.2,0,0.4-0.1,0.5-0.1c0.2,0,0.3,0.1,0.3,0.2c0,0.6-1.2,1-1.9,1c-1.4,0-2-1.1-2.6-2.2l-1.5-2.8c-0.4-0.8-0.7-1-1.6-1
				c-1,0-0.8,0.1-0.8,0.8V88c0,1.9,1.8,1.2,1.8,1.8c0,0.2-0.1,0.3-0.6,0.3c-0.3,0-0.8-0.1-1.5-0.1c-1,0-1.9,0.1-2.8,0.1
				c-0.2,0-0.6,0.1-0.6-0.3c0-0.6,1.5,0,1.5-2.2V79.6z M149.3,82.8c0,0.4,0.7,0.4,1.2,0.4c2.7,0,2.8-1,2.8-2.1c0-1.8-1-3.1-2.8-3.1
				c-0.7,0-1.2,0-1.2,1.1V82.8z"/>
			<path fill="#FFFFFF" d="M161.9,87c-0.1,3.1,1.9,2,1.9,2.8c0,0.1,0.1,0.3-0.4,0.3c-0.6,0-1-0.1-1.9-0.1c-0.9,0-1.5,0.1-1.8,0.1
				c-0.3,0-0.3-0.1-0.3-0.3c0-0.6,1.5-0.2,1.5-2.1l0.3-7.2c0.1-3-1.8-2.1-1.8-2.9c0-0.1,0.1-0.3,0.2-0.3c0.2,0,0.5,0.1,1.1,0.1
				c0.4,0,1.1-0.1,1.7-0.1c0.2,0,0.4,0,0.6,0.5l4,8.6c0.1,0.2,0.1,0.3,0.2,0.3c0.1,0,0.3-0.3,0.3-0.4l4.2-8.7
				c0.1-0.1,0.1-0.4,0.4-0.4c0.4,0,0.8,0.1,1,0.1c0.3,0,0.7-0.1,1.2-0.1c0.5,0,0.5,0.1,0.5,0.2c0,0.6-1.8-0.1-1.7,2l0.3,8
				c0.1,2.4,1.7,1.6,1.7,2.2c0,0.3-0.2,0.3-0.9,0.3c-0.5,0-1-0.1-1.5-0.1c-1.2,0-1.6,0.1-2,0.1c-0.4,0-0.8,0.1-0.8-0.3
				c0-0.6,1.4,0,1.3-2l-0.3-5.5c0-0.5,0-0.8-0.1-0.8c-0.1,0-0.3,0.4-0.6,1l-3.4,7.1c-0.1,0.2-0.2,0.5-0.5,0.5
				c-0.3,0-0.4-0.3-0.4-0.5l-3.5-7.8c-0.1-0.1-0.1-0.3-0.2-0.3c-0.1,0-0.1,0.3-0.1,0.4L161.9,87z"/>
			<path fill="#FFFFFF" d="M180.8,85.6c-0.3,0-0.7,0.1-1.1,1.3c-0.1,0.4-0.4,1-0.4,1.4c0,1.3,1.9,1,1.9,1.5c0,0.4-0.6,0.3-0.9,0.3
				c-0.6,0-1.1-0.1-1.7-0.1c-0.5,0-1.1,0.1-1.6,0.1c-0.3,0-0.5,0-0.5-0.2c0-0.4,0.9-0.3,1.4-1.3l4.9-10.9c0.1-0.3,0.2-0.6,0.4-0.6
				c0.2,0,0.2,0,0.4,0.6l4.9,11c0.6,1.3,1.5,0.6,1.5,1.2c0,0.3-0.2,0.3-0.6,0.3c-0.6,0-1.1-0.1-2.3-0.1c-0.8,0-1.5,0.1-2,0.1
				c-0.3,0-0.6,0-0.6-0.2c0-0.5,1.3-0.3,1.3-1.4c0-0.4-0.1-0.7-0.3-1.2c-0.6-1.4-0.7-1.6-1.2-1.6H180.8z M183.8,84.7
				c0.3,0,0.6,0,0.6-0.2c0-0.3-0.1-0.5-0.2-0.7l-1.5-3.3c-0.1-0.1-0.1-0.1-0.1-0.1c0,0-0.1,0-0.2,0.2l-1.4,3.2
				c-0.1,0.2-0.2,0.4-0.2,0.7c0,0.2,0.3,0.2,0.6,0.2H183.8z"/>
			<path fill="#FFFFFF" d="M194.8,79.4c0-0.9-0.2-1-0.9-1h-1.4c-2,0-1.5,2.4-2.3,2.4c-0.4,0-0.3-0.4-0.2-0.6l0.3-2.4
				c0-0.2,0-0.4,0.3-0.4c1.7,0,2.8,0.1,5.4,0.1c2.6,0,3.4-0.1,5-0.1c0.3,0,0.3,0.3,0.3,0.4l0.2,1.7c0,0.2,0.2,0.9-0.2,0.9
				c-0.7,0-0.1-2-2.2-1.9h-1.3c-0.7,0-0.7,0.1-0.7,1v8.1c0,2.2,2.3,1.7,2.3,2.2c0,0.4-0.4,0.4-0.9,0.4c-0.7,0-1.3-0.1-2.5-0.1
				c-1.2,0-1.8,0.1-2.5,0.1c-0.3,0-0.6,0-0.6-0.4c0-0.7,2,0.2,2-2V79.4z"/>
			<path fill="#FFFFFF" d="M207.4,87.8c0,2.2,2,1.4,2,2c0,0.2-0.2,0.3-0.6,0.3c-0.7,0-1.3-0.1-2.7-0.1c-0.8,0-1.5,0.1-2,0.1
				c-0.2,0-0.2-0.1-0.2-0.2c0-0.6,1.3-0.2,1.3-1.9v-8.6c0-1.6-2-1.1-2-1.8c0-0.3,0.4-0.3,0.6-0.3c0.7,0,1.4,0.1,2,0.1
				c0.6,0,1.3-0.1,2.3-0.1c0.5,0,0.6,0,0.6,0.3c0,0.6-1.4,0-1.4,1.7V87.8z"/>
			<path fill="#FFFFFF" d="M217.6,77.2c3.5,0,6.2,2.3,6.2,6.1c0,2.5-1.1,6.9-6.8,6.9c-3.6,0-6-2.4-6-6.1
				C210.9,80.2,213.3,77.2,217.6,77.2z M217.5,89.4c3.1-0.1,4.1-2.5,4.1-5.5c0-4-2.2-6.1-4.5-6c-3,0.1-3.9,2.5-3.9,5.1
				C213.1,85.7,214.3,89.5,217.5,89.4z"/>
			<path fill="#FFFFFF" d="M227.2,80.8c0-3.5-2-2.3-2-3.2c0-0.2,0.1-0.3,0.3-0.3c0.3,0,0.7,0.1,1,0.1c0.5,0,0.9-0.1,1.9-0.1
				c0.6,0,0.4,0.1,0.7,0.5l7.2,7.9c0.2,0.3,0.5,0.5,0.6,0.5c0.1,0,0.1-0.2,0.1-0.7v-6c0-1.6-2.2-1.3-2.2-1.9c0-0.1,0.1-0.3,0.3-0.3
				c0.3,0,0.8,0.1,2.1,0.1c1.1,0,1.8-0.1,1.9-0.1c0.3,0,0.3,0.2,0.3,0.2c0,0.5-1.5,0.1-1.5,2v10.1c0,0.4,0,0.5-0.2,0.5
				c-0.3,0-0.3-0.1-0.5-0.3l-8.7-9.4c-0.1-0.1-0.2-0.2-0.3-0.2c-0.1,0-0.1,0.1-0.1,0.3v6.1c0,3.5,2.3,2.2,2.3,3.1
				c0,0.3-0.4,0.2-0.7,0.2c-0.9,0-1.5-0.1-2.1-0.1c-0.6,0-1.1,0.1-1.5,0.1c-0.2,0-0.6,0.1-0.6-0.2c0-0.7,1.7-0.4,1.7-2.2V80.8z"/>
		</g>
		<g>
			<path fill="#FFFFFF" d="M97.3,101.3c0-0.7-0.1-0.7-0.7-0.7h-0.7c-1.6,0-1.2,1.8-1.8,1.8c-0.3,0-0.2-0.3-0.2-0.5l0.2-1.9
				c0-0.1,0-0.3,0.2-0.3c1.3,0,1.8,0.1,3.9,0.1c2.1,0,3-0.1,4.3-0.1c0.2,0,0.2,0.2,0.2,0.3l0.2,1.3c0,0.2,0.2,0.7-0.2,0.7
				c-0.6,0-0.1-1.6-1.7-1.5h-1.2c-0.6,0-0.7,0.1-0.7,0.7v6.4c0,1.7,1.8,1.3,1.8,1.7c0,0.3-0.3,0.3-0.7,0.3c-0.6,0-1-0.1-2-0.1
				s-1.4,0.1-2,0.1c-0.3,0-0.5,0-0.5-0.3c0-0.5,1.6,0.1,1.6-1.5V101.3z"/>
			<path fill="#FFFFFF" d="M111.4,103.4c0,0.6,0,0.7,0.6,0.7h0.9c1.2,0,1.3-1.3,1.5-1.3c0.1,0,0.3,0,0.3,0.3l0.1,2.5
				c0,0.2,0.1,0.7-0.2,0.7c-0.4,0-0.1-1.5-1.5-1.5h-1c-0.6,0-0.6,0.2-0.6,1v1.8c0,0.9-0.1,1.4,1,1.4c3.5,0,3.3-1.8,3.8-1.8
				c0.1,0,0.2,0,0.2,0.3c0,1.1-0.8,2.2-2,2.2c-2.1,0-3-0.1-3.7-0.1c-0.4,0-1,0.1-1.8,0.1c-0.2,0-0.3-0.1-0.3-0.2
				c0-0.6,1.1,0.1,1.1-1.6v-6.6c0-1.3-1.6-0.8-1.6-1.4c0-0.1,0.1-0.2,0.3-0.2c0.6,0,1.6,0.1,3.7,0.1c1,0,2-0.1,3.2-0.1
				c0.2,0,0.3,0.1,0.3,0.3l0.1,1.4c0,0.2,0.1,0.6-0.2,0.6c-0.7,0,0.4-1.6-2.3-1.6c-1.7,0-1.8,0-1.8,1V103.4z"/>
			<path fill="#FFFFFF" d="M131,102.8c0,0.1,0.1,0.5-0.2,0.5c-0.2,0-0.3-0.3-0.4-0.5c-0.7-1.3-1.9-2.6-3.6-2.6c-2.1,0-3.2,2-3.2,3.9
				c0,2,1.1,4.8,3.8,4.8c2.2,0,3.1-1.8,3.5-1.8c0.1,0,0.2,0.1,0.2,0.2c0,0.6-1.5,2.7-4.5,2.7c-4.1,0-4.7-3.6-4.7-4.7
				c0-2.4,1.4-5.5,5-5.5c1.7,0,2.8,0.9,3.2,0.9c0.3,0,0.3-0.5,0.5-0.5c0.1,0,0.2,0,0.2,0.1L131,102.8z"/>
			<path fill="#FFFFFF" d="M146.7,107.7c0,1.8,1.5,1.3,1.5,1.8c0,0.2-0.1,0.2-0.3,0.2c-0.5,0-1.3-0.1-1.9-0.1c-0.5,0-1.1,0.1-1.8,0.1
				c-0.2,0-0.3-0.1-0.3-0.2c0-0.5,1-0.1,1-1.5v-2.5c0-0.6,0-0.7-0.6-0.7h-3.8c-0.6,0-0.7,0.1-0.7,0.8v2.2c0,1.7,1.7,1.2,1.7,1.7
				c0,0.1,0,0.2-0.4,0.2c-0.6,0-1-0.1-2.1-0.1c-0.6,0-1.2,0.1-1.9,0.1c-0.2,0-0.3,0-0.3-0.2c0-0.6,1.2-0.1,1.2-1.8v-6.3
				c0-1.5-1.6-0.9-1.6-1.4c0-0.2,0.4-0.2,0.7-0.2c0.4,0,0.8,0.1,1.6,0.1c0.8,0,1.4-0.1,1.8-0.1c0.2,0,0.3,0.1,0.3,0.2
				c0,0.4-1.1,0-1.1,1.3v2.2c0,0.4,0.1,0.6,0.4,0.6h4.2c0.4,0,0.5-0.3,0.5-0.6v-2c0-1.5-1.5-1-1.5-1.4c0-0.3,0.1-0.2,0.3-0.2
				c0.6,0,0.9,0.1,1.8,0.1c0.7,0,1.3-0.1,1.9-0.1c0.2,0,0.3,0,0.3,0.2c0,0.5-1-0.1-1,1.3V107.7z"/>
			<path fill="#FFFFFF" d="M155.4,102.4c0-2.7-1.6-1.8-1.6-2.5c0-0.1,0.1-0.2,0.2-0.2c0.3,0,0.5,0.1,0.8,0.1c0.4,0,0.7-0.1,1.5-0.1
				c0.5,0,0.3,0.1,0.5,0.4l5.6,6.2c0.2,0.2,0.4,0.4,0.4,0.4c0.1,0,0.1-0.2,0.1-0.5v-4.7c0-1.3-1.7-1-1.7-1.5c0-0.1,0-0.2,0.2-0.2
				c0.2,0,0.6,0.1,1.6,0.1c0.9,0,1.4-0.1,1.5-0.1c0.3,0,0.3,0.1,0.3,0.2c0,0.4-1.2,0.1-1.2,1.6v7.9c0,0.3,0,0.4-0.2,0.4
				c-0.2,0-0.3-0.1-0.4-0.2l-6.8-7.3c-0.1-0.1-0.2-0.2-0.3-0.2c-0.1,0-0.1,0.1-0.1,0.2v4.8c0,2.7,1.8,1.7,1.8,2.4
				c0,0.2-0.4,0.2-0.5,0.2c-0.7,0-1.2-0.1-1.7-0.1c-0.5,0-0.8,0.1-1.2,0.1c-0.2,0-0.4,0.1-0.4-0.2c0-0.6,1.3-0.3,1.3-1.7V102.4z"/>
			<path fill="#FFFFFF" d="M175.7,99.6c2.7,0,4.8,1.8,4.8,4.8c0,2-0.9,5.4-5.3,5.4c-2.8,0-4.7-1.9-4.7-4.8
				C170.5,102,172.3,99.7,175.7,99.6z M175.6,109.2c2.4,0,3.2-1.9,3.2-4.3c0-3.1-1.7-4.7-3.5-4.7c-2.4,0-3.1,2-3.1,4
				C172.2,106.3,173.1,109.2,175.6,109.2z"/>
			<path fill="#FFFFFF" d="M189.2,107.6c0,0.9-0.1,1.4,1,1.4c3.5,0,3.3-1.8,3.8-1.8c0.1,0,0.2,0,0.2,0.3c0,1.1-0.8,2.2-2,2.2
				c-2.1,0-3-0.1-3.7-0.1c-0.4,0-1,0.1-1.8,0.1c-0.2,0-0.3-0.1-0.3-0.2c0-0.6,1.1,0.1,1.1-1.6v-6.6c0-1.2-1.6-0.8-1.6-1.3
				c0-0.1,0.2-0.2,0.4-0.2c0.6,0,1.4,0.1,1.9,0.1c1.2,0,1.4-0.1,1.6-0.1c0.3,0,0.4,0,0.4,0.2c0,0.5-1,0-1,1.1V107.6z"/>
			<path fill="#FFFFFF" d="M204.7,99.6c2.7,0,4.8,1.8,4.8,4.8c0,2-0.9,5.4-5.3,5.4c-2.8,0-4.7-1.9-4.7-4.8
				C199.4,102,201.3,99.7,204.7,99.6z M204.6,109.2c2.4,0,3.2-1.9,3.2-4.3c0-3.1-1.7-4.7-3.5-4.7c-2.4,0-3.1,2-3.1,4
				C201.2,106.3,202,109.2,204.6,109.2z"/>
			<path fill="#FFFFFF" d="M224.4,103c0,0.2-0.1,0.3-0.4,0.3c-0.3,0-0.3-3.1-4-3.1c-1.3,0-3.2,0.9-3.2,4.4c0,1.9,1,4.5,3.3,4.5
				c2.5,0,2.6-1.2,2.6-2c0-2.2-1.7-1.2-1.7-1.8c0-0.4,0.4-0.3,0.7-0.3c0.7,0,1.3,0.1,2,0.1c0.5,0,1-0.1,1.5-0.1
				c0.1,0,0.2,0.1,0.2,0.2c0,0.6-1-0.2-1,1.6c0,0.6,0,1,0,1.2c0,0.2,0,0.3-0.1,0.4c-1.3,0.7-2.9,1.4-4.4,1.4c-4.1,0-4.7-3.6-4.7-4.7
				c0-2.4,1.4-5.5,5-5.5c2,0,3.1,0.9,3.5,0.9c0.3,0,0.3-0.4,0.6-0.4c0.2,0,0.2,0.3,0.2,0.5V103z"/>
			<path fill="#FFFFFF" d="M232,101c-0.5-1-1.4-0.7-1.4-1.1c0-0.2,0.2-0.2,0.5-0.2c0.3,0,0.6,0.1,1.3,0.1c0.6,0,1.2,0,2.1-0.1
				c0.2,0,0.2,0.1,0.2,0.2c0,0.3-0.8,0.2-0.8,0.7c0,0.1,0,0.3,0.2,0.6l1.3,2.6c0.2,0.5,0.3,0.6,0.4,0.6c0.1,0,0.2-0.1,0.4-0.4
				l1.3-2.3c0.3-0.5,0.3-0.7,0.3-0.8c0-0.9-1.4-0.6-1.4-1.1c0-0.1,0.1-0.2,0.3-0.2c0.2,0,0.5,0.1,1.2,0.1c1.1,0,1.2-0.1,1.6-0.1
				c0.2,0,0.3,0.1,0.3,0.2c0,0.4-0.6,0.1-1.5,1.6l-1.8,3.5c-0.1,0.3-0.2,0.4-0.2,0.9v2.1c0,1.8,1.7,0.8,1.7,1.5
				c0,0.2-0.2,0.2-0.5,0.2c-0.1,0-0.3-0.1-2.1-0.1c-1.3,0-1.7,0.1-2.1,0.1c-0.2,0-0.4,0-0.4-0.2c0-0.6,1.5,0.1,1.5-1.6v-1.8
				c0-0.5-0.1-0.6-0.2-0.9L232,101z"/>
		</g>
	</g>
</g>
</svg>
